<?xml version="1.0" encoding="UTF-8" standalone="no"?>
<svg
   id="logo"
   viewBox="0 0 2240 770"
   version="1.1"
   sodipodi:docname="black-txt_color-eye.svg"
   width="2240"
   height="770"
   inkscape:version="1.2 (dc2aeda, 2022-05-15)"
   xmlns:inkscape="http://www.inkscape.org/namespaces/inkscape"
   xmlns:sodipodi="http://sodipodi.sourceforge.net/DTD/sodipodi-0.dtd"
   xmlns="http://www.w3.org/2000/svg"
   xmlns:svg="http://www.w3.org/2000/svg">
  <sodipodi:namedview
     id="namedview403"
     pagecolor="#505050"
     bordercolor="#eeeeee"
     borderopacity="1"
     inkscape:showpageshadow="0"
     inkscape:pageopacity="0"
     inkscape:pagecheckerboard="0"
     inkscape:deskcolor="#505050"
     showgrid="false"
     inkscape:zoom="0.4081835"
     inkscape:cx="1114.6948"
     inkscape:cy="558.57231"
     inkscape:window-width="1440"
     inkscape:window-height="800"
     inkscape:window-x="0"
     inkscape:window-y="23"
     inkscape:window-maximized="1"
     inkscape:current-layer="logo" />
  <defs
     id="defs396">
    <style
       id="style383">.cls-1{fill:url(#_称未設定グラデーション_2);}</style>
    <linearGradient
       id="_称未設定グラデーション_2"
       x1="1385.75"
       y1="626.62"
       x2="1815.14"
       y2="419.75"
       gradientUnits="userSpaceOnUse">
      <stop
         offset=".02"
         stop-color="#ff64c7"
         id="stop385" />
      <stop
         offset=".19"
         stop-color="#9f6eff"
         id="stop387" />
      <stop
         offset=".4"
         stop-color="#ff64c7"
         id="stop389" />
      <stop
         offset=".63"
         stop-color="#9f6eff"
         id="stop391" />
      <stop
         offset=".85"
         stop-color="#50c7ff"
         id="stop393" />
    </linearGradient>
  </defs>
  <g
     id="g419"
     transform="matrix(1.4176482,0,0,1.4176482,-460.67065,-267.35777)">
    <path
       d="m 1575.7,405.73 c -34.39,34.4 -55.7,81.9 -55.7,134.27 0,104.77 85.23,190 190,190 104.77,0 190,-85.23 190,-190 0,-96.41 -72.18,-176.27 -165.34,-188.4 13.04,-48.49 1.97,-102.04 -60.24,-159.12 -5.12,-4.7 -13.42,-1.17 -13.46,5.78 -0.46,74.19 20.08,102.88 -85.27,207.47 z M 1460,360 v 360 h -80 L 1240,510 v 210 h -80 V 360 h 80 l 140,210 V 360 Z m -600,80 v 60 h 220 v 80 H 860 v 60 h 220 v 80 H 780 V 360 h 300 v 80 z M 788.58,305.54 H 780 v -51.08 h 14.23 c 6.51,0 9.87,1.14 12.45,4.15 2.36,2.72 3.43,6.44 3.43,11.95 0,5.94 -1.29,10.02 -4.01,12.73 -2.57,2.5 -5.87,3.51 -11.88,3.51 h -5.65 v 18.74 z m 5.65,-25.75 c 5.22,0 7.37,-2.65 7.37,-9.23 0,-3.29 -0.71,-6.01 -2,-7.44 -1.22,-1.29 -2.65,-1.72 -5.37,-1.72 h -5.79 v 18.39 z m 104.81,25.75 h -8.58 v -51.08 h 15.31 c 6.15,0 9.44,1 11.95,3.65 2.36,2.43 3.43,5.87 3.43,11.02 0,8.58 -2.29,12.59 -8.23,14.52 l 9.66,21.89 h -9.51 l -8.51,-21.17 h -5.51 v 21.17 z m 6.15,-27.9 c 5.22,0 7.37,-2.36 7.37,-8.01 0,-5.94 -2.07,-8.23 -7.44,-8.23 h -6.22 v 16.24 h 6.3 z m 96.94,-5.65 c 0,-6.58 1,-10.3 3.44,-13.31 2.86,-3.43 6.8,-4.94 12.95,-4.94 6.58,0 10.8,1.79 13.59,5.79 2,2.86 2.79,6.37 2.79,12.45 v 16.03 c 0,6.58 -1,10.3 -3.44,13.3 -2.86,3.43 -6.8,4.94 -12.95,4.94 -6.58,0 -10.8,-1.79 -13.59,-5.72 -2,-2.93 -2.79,-6.51 -2.79,-12.52 v -16.03 z m 24.18,0.79 c 0,-8.8 -2.07,-12.02 -7.8,-12.02 -5.73,0 -7.8,3.22 -7.8,12.02 v 14.45 c 0,8.8 2.07,12.02 7.8,12.02 5.73,0 7.8,-3.22 7.8,-12.02 z m 110.17,-18.31 v 32.62 c 0,8.08 -0.36,10.73 -1.64,13.3 -1.93,3.93 -5.72,5.87 -11.3,5.87 -5.22,0 -8.87,-1.57 -12.8,-5.36 l 4.86,-5.58 c 2.5,2.72 4.72,3.93 7.15,3.93 2.43,0 3.93,-1.36 4.65,-4.15 0.36,-1.5 0.5,-3.29 0.5,-7.87 v -32.76 z m 83.42,0 h 27.33 v 7.08 h -18.81 v 14.66 h 15.88 v 7.08 h -15.88 v 15.17 h 19.03 v 7.08 h -27.54 v -51.08 z m 139,36.91 c -0.22,4.58 -0.93,7.15 -2.72,9.51 -2.58,3.5 -7.01,5.36 -12.8,5.36 -6.08,0 -10.3,-1.86 -12.95,-5.72 -2,-2.86 -2.79,-6.72 -2.79,-13.24 v -14.45 c 0,-7.23 0.93,-11.16 3.44,-14.17 2.79,-3.36 6.58,-4.86 12.23,-4.86 9.73,0 14.66,4.79 15.02,14.66 l -7.87,0.29 c -0.5,-5.51 -2.57,-7.94 -7.01,-7.94 -5.36,0 -7.23,3.22 -7.23,12.59 v 13.3 c 0,9.3 1.86,12.52 7.3,12.52 4.72,0 7.01,-2.65 7.44,-8.37 l 7.94,0.5 z m 81.13,-29.83 h -11.45 v -7.08 h 31.4 v 7.08 h -11.37 v 43.99 h -8.58 z m -759.12,159.38 -70.92,88.04 -55,-68.28 c -55,-68.28 -92.77,-153.39 10.58,-248.21 5.12,-4.7 13.42,-1.17 13.46,5.78 0.46,74.19 -20.04,102.8 85.31,207.39 l 16.57,15.27 z m -60.92,299.08 -90,-111.72 -90,111.72 h -110 l 145,-180 -145,-180 h 110 l 290,360 z"
       id="path398" />
    <path
       class="cls-1"
       d="m 1588.25,590.79 c 14.09,-35.22 62.76,-123.79 202.73,-151.53 9.21,-1.82 18.29,3.52 21.36,12.39 15.32,44.18 12.16,95.78 -51.73,147.64 -63.49,51.53 -126.37,36.93 -164.41,14.65 -8.02,-4.7 -11.4,-14.52 -7.95,-23.15 z m -98.45,8.31 c -12.24,-29.52 -62.08,-93.32 -148.87,-106.61 -9.87,-1.51 -18.44,7.01 -17.03,16.89 6.68,46.63 26.34,85.02 70.99,111.23 43.61,25.6 74.95,10.19 91.18,-4.91 4.55,-4.24 6.11,-10.85 3.72,-16.59 z"
       id="path400"
       style="fill:url(#_%E7%A7%B0%E6%9C%AA%E8%A8%AD%E5%AE%9A%E3%82%B0%E3%83%A9%E3%83%87%E3%83%BC%E3%82%B7%E3%83%A7%E3%83%B3_2)" />
  </g>
</svg>
