<?xml version="1.0" encoding="UTF-8"?><svg id="logo" xmlns="http://www.w3.org/2000/svg" viewBox="0 0 2240 1080"><defs><style>.cls-1{fill:#fff;}</style></defs><path class="cls-1" d="M1734.66,351.6c13.04-48.49,1.97-102.04-60.24-159.12-5.12-4.7-13.42-1.17-13.46,5.78-.46,74.19,20.08,102.88-85.27,207.47-34.39,34.4-55.7,81.9-55.7,134.27,0,104.77,85.23,190,190,190s190-85.23,190-190c0-96.41-72.18-176.27-165.34-188.4Zm25.94,247.7c-63.49,51.53-126.38,36.93-164.41,14.65-8.02-4.7-11.4-14.52-7.95-23.15,14.09-35.22,62.76-123.79,202.73-151.53,9.21-1.82,18.29,3.52,21.36,12.39,15.32,44.18,12.16,95.78-51.73,147.64Zm-300.61,31.87v88.84h-80l-140-210v210h-80V360h80l90.07,135.11c-4.34,3.1-7,8.44-6.17,14.28,6.68,46.63,26.34,85.02,70.99,111.23,26.42,15.5,48.32,15.95,65.1,10.55Zm-80-128.64v-142.52h80v195.7c-18.71-20.02-45.4-40.53-80-53.18Zm-600-142.52h300v80h-220v60h220v80h-220v60h220v80h-300V360Zm-340,0l290,360h-110l-90-111.72-90,111.72h-110l145-180-145-180h110Zm115,80.69c-55-68.28-92.77-153.39,10.58-248.21,5.12-4.7,13.42-1.17,13.46,5.78,.46,74.19-20.04,102.8,85.31,207.39l16.57,15.27-70.92,88.04-55-68.28Z"/></svg>