<?xml version="1.0" encoding="UTF-8" standalone="no"?>
<svg
   id="logo"
   viewBox="0 0 2240 770"
   version="1.1"
   sodipodi:docname="white-txt_color-eye.svg"
   width="2240"
   height="770"
   inkscape:version="1.2 (dc2aeda, 2022-05-15)"
   xmlns:inkscape="http://www.inkscape.org/namespaces/inkscape"
   xmlns:sodipodi="http://sodipodi.sourceforge.net/DTD/sodipodi-0.dtd"
   xmlns="http://www.w3.org/2000/svg"
   xmlns:svg="http://www.w3.org/2000/svg">
  <sodipodi:namedview
     id="namedview162"
     pagecolor="#505050"
     bordercolor="#eeeeee"
     borderopacity="1"
     inkscape:showpageshadow="0"
     inkscape:pageopacity="0"
     inkscape:pagecheckerboard="0"
     inkscape:deskcolor="#505050"
     showgrid="false"
     inkscape:zoom="0.21851852"
     inkscape:cx="507.9661"
     inkscape:cy="320.33898"
     inkscape:window-width="1440"
     inkscape:window-height="800"
     inkscape:window-x="0"
     inkscape:window-y="23"
     inkscape:window-maximized="0"
     inkscape:current-layer="logo" />
  <defs
     id="defs155">
    <style
       id="style142">.cls-1{fill:url(#_称未設定グラデーション_2);}.cls-2{fill:#fff;}</style>
    <linearGradient
       id="_称未設定グラデーション_2"
       x1="1385.75"
       y1="626.62"
       x2="1815.14"
       y2="419.75"
       gradientUnits="userSpaceOnUse"
       gradientTransform="matrix(1.4022429,0,0,1.4022429,-448.49886,-203.09973)">
      <stop
         offset=".02"
         stop-color="#ff64c7"
         id="stop144" />
      <stop
         offset=".19"
         stop-color="#9f6eff"
         id="stop146" />
      <stop
         offset=".4"
         stop-color="#ff64c7"
         id="stop148" />
      <stop
         offset=".63"
         stop-color="#9f6eff"
         id="stop150" />
      <stop
         offset=".85"
         stop-color="#50c7ff"
         id="stop152" />
    </linearGradient>
  </defs>
  <g
     id="g324"
     transform="matrix(1.0060474,0,0,1.0060474,-1.7378147,-59.842983)">
    <path
       class="cls-2"
       d="m 1761.0153,365.83229 c -48.2231,48.23716 -78.1049,114.8437 -78.1049,188.27916 0,146.91299 119.5132,266.42616 266.4262,266.42616 146.9129,0 266.4261,-119.51317 266.4261,-266.42616 0,-135.19024 -101.2139,-247.17336 -231.8468,-264.18257 18.2852,-67.99476 2.7624,-143.08487 -84.4711,-223.12489 -7.1795,-6.59054 -18.8181,-1.64063 -18.8742,8.10496 -0.6451,104.03241 28.157,144.26276 -119.5693,290.92334 z M 1598.7758,301.70772 V 806.51518 H 1486.5964 L 1290.2824,512.04416 V 806.51518 H 1178.1029 V 301.70772 h 112.1795 l 196.314,294.47102 V 301.70772 Z M 757.43006,413.88716 v 84.13457 H 1065.9235 V 610.20117 H 757.43006 v 84.13457 H 1065.9235 V 806.51518 H 645.25063 V 301.70772 H 1065.9235 V 413.88716 Z M 657.28187,225.34157 h -12.03124 v -71.62656 h 19.95392 c 9.1286,0 13.84013,1.59855 17.45792,5.8193 3.30929,3.8141 4.80969,9.03045 4.80969,16.75681 0,8.32932 -1.80889,14.05047 -5.62299,17.85055 -3.60376,3.50561 -8.23117,4.92187 -16.65865,4.92187 h -7.92267 v 26.27803 z m 7.92268,-36.10775 c 7.3197,0 10.33453,-3.71594 10.33453,-12.9427 0,-4.61338 -0.9956,-8.42748 -2.80449,-10.43269 -1.71074,-1.80889 -3.71594,-2.41186 -7.53004,-2.41186 h -8.11899 v 25.78725 z m 146.96908,36.10775 h -12.03125 v -71.62656 h 21.46834 c 8.6238,0 13.23718,1.40224 16.75681,5.11818 3.30929,3.40745 4.80969,8.23117 4.80969,15.45272 0,12.03124 -3.21114,17.65424 -11.54046,20.36057 l 13.54567,30.69509 H 831.8471 l -11.93309,-29.68548 h -7.72636 v 29.68548 z m 8.62379,-39.12257 c 7.31971,0 10.33453,-3.3093 10.33453,-11.23197 0,-8.32932 -2.90264,-11.54046 -10.43269,-11.54046 h -8.72195 V 186.219 h 8.83413 z m 135.93343,-7.92268 c 0,-9.22675 1.40224,-14.4431 4.82372,-18.66385 4.01041,-4.80969 9.53525,-6.92708 18.15904,-6.92708 9.22676,0 15.14423,2.51002 19.05648,8.11899 2.80451,4.01041 3.91231,8.93228 3.91231,17.45792 v 22.47796 c 0,9.22675 -1.4023,14.4431 -4.82376,18.64983 -4.01042,4.80969 -9.53526,6.92708 -18.15905,6.92708 -9.22676,0 -15.14422,-2.51002 -19.05648,-8.02083 -2.80449,-4.10857 -3.91226,-9.1286 -3.91226,-17.55608 V 178.2823 Z m 33.90624,1.10778 c 0,-12.33974 -2.90265,-16.85496 -10.9375,-16.85496 -8.03485,0 -10.93749,4.51522 -10.93749,16.85496 v 20.26241 c 0,12.33973 2.90264,16.85496 10.93749,16.85496 8.03485,0 10.9375,-4.51523 10.9375,-16.85496 z m 154.48511,-25.67507 v 45.74116 c 0,11.33013 -0.5048,15.04607 -2.2997,18.64983 -2.7063,5.51082 -8.0208,8.23117 -15.8453,8.23117 -7.3197,0 -12.4379,-2.20152 -17.9487,-7.51602 l 6.8149,-7.82452 c 3.5056,3.8141 6.6185,5.51082 10.026,5.51082 3.4074,0 5.5108,-1.90705 6.5204,-5.81931 0.5048,-2.10337 0.7011,-4.61338 0.7011,-11.03565 v -45.93748 z m 116.9751,0 h 38.3233 v 9.92788 h -26.3762 v 20.55688 h 22.2676 v 9.92788 h -22.2676 v 21.27202 h 26.6847 v 9.92788 h -38.6178 v -71.62656 z m 194.9118,51.75678 c -0.3085,6.42228 -1.3041,10.02604 -3.8141,13.33533 -3.6178,4.90785 -9.8298,7.51603 -17.9487,7.51603 -8.5257,0 -14.4432,-2.60818 -18.1591,-8.02083 -2.8045,-4.01042 -3.9123,-9.42308 -3.9123,-18.5657 v -20.26241 c 0,-10.13822 1.3041,-15.64903 4.8238,-19.86978 3.9122,-4.71154 9.2267,-6.8149 17.1494,-6.8149 13.6438,0 20.5569,6.71674 21.0617,20.55688 l -11.0357,0.40665 c -0.7011,-7.72636 -3.6037,-11.13381 -9.8297,-11.13381 -7.516,0 -10.1382,4.51522 -10.1382,17.65424 v 18.64983 c 0,13.04086 2.6082,17.55608 10.2364,17.55608 6.6186,0 9.8297,-3.71594 10.4327,-11.73677 l 11.1338,0.70112 z m 113.7639,-41.8289 h -16.0557 v -9.92788 h 44.0305 v 9.92788 h -15.9435 v 61.68466 H 1570.773 Z M 506.30238,387.14639 406.85531,510.59985 329.73195,414.85471 C 252.60859,319.10956 199.64587,199.76466 344.56768,66.80399 c 7.17948,-6.59054 18.8181,-1.64063 18.87419,8.10496 0.64503,104.03241 -28.10095,144.15058 119.62534,290.81116 l 23.23517,21.41225 z M 420.87774,806.5292 294.67587,649.87062 168.47401,806.5292 H 14.227288 L 217.55251,554.12547 14.227288,301.72175 H 168.47401 L 575.12446,806.5292 Z"
       id="path157"
       style="stroke-width:1.40224" />
    <path
       class="cls-1"
       d="m 1778.6135,625.33137 c 19.7576,-49.387 88.0047,-173.58365 284.2767,-212.48187 12.9146,-2.55208 25.647,4.93589 29.9519,17.37379 21.4824,61.95109 17.0513,134.30683 -72.538,207.02715 -89.0284,72.25757 -177.2015,51.78483 -230.5428,20.54285 -11.246,-6.59054 -15.9856,-20.36056 -11.1478,-32.46192 z m -138.0508,11.65264 c -17.1635,-41.39421 -87.0513,-130.85731 -208.7519,-149.49312 -13.8402,-2.11739 -25.8574,9.82972 -23.8802,23.68388 9.3669,65.38659 36.935,119.2187 99.5452,155.97148 61.1518,35.89742 105.0981,14.28886 127.8565,-6.88501 6.3802,-5.94551 8.5677,-15.21433 5.2163,-23.26321 z"
       id="path159"
       style="fill:url(#_%E7%A7%B0%E6%9C%AA%E8%A8%AD%E5%AE%9A%E3%82%B0%E3%83%A9%E3%83%87%E3%83%BC%E3%82%B7%E3%83%A7%E3%83%B3_2);stroke-width:1.40224" />
  </g>
</svg>
