<?xml version="1.0" encoding="UTF-8" standalone="no"?>
<svg
   id="logo"
   viewBox="0 0 2240 770"
   version="1.1"
   sodipodi:docname="white-txt.svg"
   width="2240"
   height="770"
   inkscape:version="1.2 (dc2aeda, 2022-05-15)"
   xmlns:inkscape="http://www.inkscape.org/namespaces/inkscape"
   xmlns:sodipodi="http://sodipodi.sourceforge.net/DTD/sodipodi-0.dtd"
   xmlns="http://www.w3.org/2000/svg"
   xmlns:svg="http://www.w3.org/2000/svg">
  <defs
     id="defs331" />
  <sodipodi:namedview
     id="namedview329"
     pagecolor="#505050"
     bordercolor="#eeeeee"
     borderopacity="1"
     inkscape:showpageshadow="0"
     inkscape:pageopacity="0"
     inkscape:pagecheckerboard="0"
     inkscape:deskcolor="#505050"
     showgrid="false"
     inkscape:zoom="0.38350146"
     inkscape:cx="1122.5511"
     inkscape:cy="387.22147"
     inkscape:window-width="1440"
     inkscape:window-height="855"
     inkscape:window-x="0"
     inkscape:window-y="23"
     inkscape:window-maximized="1"
     inkscape:current-layer="logo" />
  <path
     d="m 2001.5187,229.42115 c 18.5503,-68.98055 2.8024,-145.15934 -85.6958,-226.359798 -7.2836,-6.686097 -19.0909,-1.664409 -19.1478,8.222473 -0.6545,105.540675 28.5652,146.354295 -121.3028,295.141205 -48.9223,48.93651 -79.2374,116.50872 -79.2374,191.00887 0,149.04297 121.2459,270.28886 270.2889,270.28886 149.0429,0 270.2889,-121.24589 270.2889,-270.28886 0,-137.15026 -102.6814,-250.75693 -235.2083,-268.01275 z m 36.9015,352.37132 c -90.3191,73.30519 -179.7847,52.53562 -233.8852,20.8407 -11.409,-6.6861 -16.2173,-20.65576 -11.3095,-32.93257 20.0441,-50.10302 89.2807,-176.1003 288.3982,-215.56247 13.1019,-2.58909 26.0189,5.00745 30.3862,17.62567 21.7938,62.84928 17.2985,136.25404 -73.5897,210.02867 z M 982.75726,164.90747 c 8.74883,0 14.35376,-2.13386 18.42234,-7.0275 3.4568,-4.26773 4.8937,-9.5597 4.8937,-18.92023 V 116.1559 c 0,-8.64925 -1.1239,-13.62825 -3.969,-17.71103 -3.96902,-5.70452 -9.97228,-8.2367 -19.33281,-8.2367 -8.74883,0 -14.35376,2.13385 -18.42232,7.02751 -3.45685,4.26771 -4.89365,9.57391 -4.89365,18.93445 v 22.80384 c 0,8.54966 1.12383,13.62825 3.96898,17.81062 3.96898,5.5907 9.97224,8.13711 19.33276,8.13711 z m -11.09607,-47.62774 c 0,-12.51864 2.94473,-17.09933 11.09607,-17.09933 8.15135,0 11.09608,4.58069 11.09608,17.09933 v 20.55618 c 0,12.51864 -2.94473,17.09932 -11.09608,17.09932 -8.15134,0 -11.09607,-4.58068 -11.09607,-17.09932 z m 336.76571,46.60349 h -39.1776 V 91.21819 h 38.8788 v 10.07182 h -26.7585 v 20.85492 h 22.5904 v 10.07181 h -22.5904 v 21.58044 h 27.0715 v 10.07181 z m 273.9733,-62.57899 h -16.2885 V 91.23242 h 44.6689 v 10.07181 h -16.1747 v 62.57899 h -12.2057 z m 28.3946,525.81142 V 753.49702 H 1496.9889 L 1297.8288,454.75671 V 753.49702 H 1184.0229 V 241.37077 h 113.8059 l 128.1311,192.20383 c -6.174,4.40997 -9.958,12.00652 -8.7773,20.31434 9.5027,66.33458 37.4705,120.94715 100.9884,158.23279 37.5844,22.04988 68.7387,22.69004 92.6096,15.00814 z m -184.3086,-470.3453 c -2.8451,-4.06856 -3.9689,-9.55969 -3.9689,-18.83486 v -20.55618 c 0,-10.2852 1.323,-15.87592 4.8936,-20.15786 3.969,-4.77984 9.3605,-6.91371 17.398,-6.91371 13.8417,0 20.855,6.81413 21.3671,20.86915 l -11.1956,0.41255 c -0.7113,-7.83838 -3.6561,-11.29523 -9.9723,-11.29523 -7.6249,0 -10.2852,4.58069 -10.2852,17.9102 v 18.92021 c 0,13.22993 2.646,17.81061 10.3848,17.81061 6.7146,0 9.9723,-3.76981 10.5839,-11.90693 l 11.2953,0.71128 c -0.313,6.51539 -1.323,10.1714 -3.8694,13.52867 -3.6702,4.97901 -9.9722,7.625 -18.209,7.625 -8.6492,0 -14.6525,-2.64599 -18.4223,-8.13712 z m 70.5027,287.34552 v -202.7451 h 113.8059 v 278.39752 c -26.6164,-28.47991 -64.5849,-57.65688 -113.8059,-75.65242 z M 643.44517,241.37077 H 1070.217 V 355.17661 H 757.25101 v 85.35437 H 1070.217 V 554.33682 H 757.25101 v 85.35437 H 1070.217 V 753.49702 H 643.44517 Z m -483.6748,0 412.54615,512.12625 H 415.8335 L 287.80193,594.56718 159.77037,753.49702 H 3.2873444 L 209.56042,497.4339 3.2873444,241.37077 Z M 1138.3583,91.23242 h 12.2057 v 46.40433 c 0,11.49439 -0.5122,15.2642 -2.333,18.92022 -2.7456,5.59071 -8.1372,8.3505 -16.0751,8.3505 -7.4258,0 -12.6182,-2.23343 -18.209,-7.62499 l 6.9138,-7.93795 c 3.5564,3.86939 6.7145,5.60494 10.1713,5.60494 3.4569,0 5.5908,-1.93471 6.615,-5.90369 0.5121,-2.13385 0.7113,-4.68026 0.7113,-11.19565 V 91.24664 Z m -482.70745,45.99179 h 8.03753 c 8.54966,0 13.22993,-1.42258 16.90017,-4.99324 3.8694,-3.8694 5.70451,-9.67349 5.70451,-18.10936 0,-7.83836 -1.52215,-13.13034 -4.87942,-16.99973 -3.65602,-4.26773 -8.45009,-5.90369 -17.71103,-5.90369 h -20.24322 v 72.66503 h 12.20568 v -26.65901 z m -0.19917,-36.13336 h 8.2367 c 3.8694,0 5.90368,0.61171 7.63921,2.44683 1.83512,2.03428 2.84516,5.90367 2.84516,10.58393 0,9.36054 -3.05854,13.13035 -10.48437,13.13035 h -8.2367 z M 323.36626,356.14395 C 245.12474,259.01067 191.39417,137.93549 338.41708,3.047128 c 7.28357,-6.686098 19.09092,-1.66441 19.14783,8.222472 0.65438,105.54068 -28.50836,146.2405 121.3597,295.0274 l 23.57203,21.72268 -100.88888,125.24333 -78.2415,-97.13328 z M 812.78825,133.75313 h 7.83838 l 12.10609,30.11586 h 13.52867 l -13.74205,-31.14012 c 8.45008,-2.74556 11.70777,-8.45008 11.70777,-20.65576 0,-7.32625 -1.52215,-12.20567 -4.87943,-15.67675 -3.55642,-3.76982 -8.23669,-5.1924 -16.99974,-5.1924 h -21.7796 v 72.66503 h 12.20568 v -30.11586 z m -0.19916,-32.66228 h 8.8484 c 7.62499,0 10.58394,3.25769 10.58394,11.70777 0,8.45008 -3.05852,11.39481 -10.48436,11.39481 h -8.96221 v -23.10258 z"
     id="path326"
     style="stroke-width:1.42258;fill:#ffffff" />
</svg>
