<!--?xml version="1.0" encoding="utf-8"?-->
<!-- Generator: Adobe Illustrator 18.1.1, SVG Export Plug-In . SVG Version: 6.00 Build 0)  -->

<svg version="1.1" id="_x32_" xmlns="http://www.w3.org/2000/svg" xmlns:xlink="http://www.w3.org/1999/xlink" x="0px" y="0px" viewBox="0 0 512 512" style="width: 48px; height: 48px; opacity: 1;" xml:space="preserve">
<style type="text/css">
	.st0{fill:#4B4B4B;}
</style>
<g>
	<path class="cls-1" d="M1734.66,351.6c13.04-48.49,1.97-102.04-60.24-159.12-5.12-4.7-13.42-1.17-13.46,5.78-.46,74.19,20.08,102.88-85.27,207.47-34.39,34.4-55.7,81.9-55.7,134.27,0,104.77,85.23,190,190,190s190-85.23,190-190c0-96.41-72.18-176.27-165.34-188.4Zm25.94,247.7c-63.49,51.53-126.38,36.93-164.41,14.65-8.02-4.7-11.4-14.52-7.95-23.15,14.09-35.22,62.76-123.79,202.73-151.53,9.21-1.82,18.29,3.52,21.36,12.39,15.32,44.18,12.16,95.78-51.73,147.64ZM1018.52,306.25c6.15,0,10.09-1.5,12.95-4.94,2.43-3,3.44-6.72,3.44-13.3v-16.03c0-6.08-.79-9.58-2.79-12.45-2.79-4.01-7.01-5.79-13.59-5.79-6.15,0-10.09,1.5-12.95,4.94-2.43,3-3.44,6.73-3.44,13.31v16.03c0,6.01,.79,9.58,2.79,12.52,2.79,3.93,7.01,5.72,13.59,5.72Zm-7.8-33.48c0-8.8,2.07-12.02,7.8-12.02s7.8,3.22,7.8,12.02v14.45c0,8.8-2.07,12.02-7.8,12.02s-7.8-3.22-7.8-12.02v-14.45Zm236.73,32.76h-27.54v-51.08h27.33v7.08h-18.81v14.66h15.88v7.08h-15.88v15.17h19.03v7.08Zm192.59-43.99h-11.45v-7.08h31.4v7.08h-11.37v43.99h-8.58v-43.99Zm19.96,369.62v88.84h-80l-140-210v210h-80V360h80l90.07,135.11c-4.34,3.1-7,8.44-6.17,14.28,6.68,46.63,26.34,85.02,70.99,111.23,26.42,15.5,48.32,15.95,65.1,10.55Zm-129.56-330.63c-2-2.86-2.79-6.72-2.79-13.24v-14.45c0-7.23,.93-11.16,3.44-14.17,2.79-3.36,6.58-4.86,12.23-4.86,9.73,0,14.66,4.79,15.02,14.67l-7.87,.29c-.5-5.51-2.57-7.94-7.01-7.94-5.36,0-7.23,3.22-7.23,12.59v13.3c0,9.3,1.86,12.52,7.3,12.52,4.72,0,7.01-2.65,7.44-8.37l7.94,.5c-.22,4.58-.93,7.15-2.72,9.51-2.58,3.5-7.01,5.36-12.8,5.36-6.08,0-10.3-1.86-12.95-5.72Zm49.56,201.99v-142.52h80v195.7c-18.71-20.02-45.4-40.53-80-53.18Zm-600-142.52h300v80h-220v60h220v80h-220v60h220v80h-300V360Zm-340,0l290,360h-110l-90-111.72-90,111.72h-110l145-180-145-180h110Zm687.9-105.54h8.58v32.62c0,8.08-.36,10.73-1.64,13.3-1.93,3.93-5.72,5.87-11.3,5.87-5.22,0-8.87-1.57-12.8-5.36l4.86-5.58c2.5,2.72,4.72,3.94,7.15,3.94s3.93-1.36,4.65-4.15c.36-1.5,.5-3.29,.5-7.87v-32.76Zm-339.32,32.33h5.65c6.01,0,9.3-1,11.88-3.51,2.72-2.72,4.01-6.8,4.01-12.73,0-5.51-1.07-9.23-3.43-11.95-2.57-3-5.94-4.15-12.45-4.15h-14.23v51.08h8.58v-18.74Zm-.14-25.4h5.79c2.72,0,4.15,.43,5.37,1.72,1.29,1.43,2,4.15,2,7.44,0,6.58-2.15,9.23-7.37,9.23h-5.79v-18.39Zm-233.44,179.29c-55-68.28-92.77-153.39,10.58-248.21,5.12-4.7,13.42-1.17,13.46,5.78,.46,74.19-20.04,102.8,85.31,207.39l16.57,15.27-70.92,88.04-55-68.28Zm344.04-156.33h5.51l8.51,21.17h9.51l-9.66-21.89c5.94-1.93,8.23-5.94,8.23-14.52,0-5.15-1.07-8.58-3.43-11.02-2.5-2.65-5.79-3.65-11.95-3.65h-15.31v51.08h8.58v-21.17Zm-.14-22.96h6.22c5.36,0,7.44,2.29,7.44,8.23s-2.15,8.01-7.37,8.01h-6.3v-16.24Z"/>
</g>
</svg>