<svg xmlns="http://www.w3.org/2000/svg" width="609.761" height="170.671" viewBox="0 0 609.761 170.671">
  <g id="hikaru_collaboration_logo_N_PC" transform="translate(-2421.069 -889.233)">
    <g id="コラボセール開催" style="isolation: isolate">
      <g id="グループ_81" data-name="グループ 81" style="isolation: isolate">
        <path id="パス_56" data-name="パス 56" d="M2426.5,1054.073v-15.7h45.2v-41.8h-45.2v-15.7H2488v73.2Z" fill="#f5d800"/>
        <path id="パス_57" data-name="パス 57" d="M2545.258,1017.974h-46v-14.9h64.8q0,13.1-3.7,22.7a39.989,39.989,0,0,1-10.5,15.7,57.686,57.686,0,0,1-13.8,9.4,66.384,66.384,0,0,1-13.3,4.75q-6.3,1.447-10.2,1.949t-4.1.5v-16.1a19.729,19.729,0,0,0,3.3-.3,63.579,63.579,0,0,0,8.1-1.7,55.564,55.564,0,0,0,10.2-3.9,31.362,31.362,0,0,0,9.351-7A26.05,26.05,0,0,0,2545.258,1017.974Zm-43.2-24.3v-14.9h57.6v14.9Z" fill="#f5d800"/>
        <path id="パス_58" data-name="パス 58" d="M2639.337,985.974v16h-25.9v56.4h-14.9v-56.4h-25.6v-16h25.6v-11.4h14.9v11.4Zm-60.7,22.1h13.3q-.1,16.9-1,26t-2.8,20.1h-14.4q.1-.2,1.15-5.4t2.35-15.549A218.46,218.46,0,0,0,2578.637,1008.073Zm40.9-28.3v-15.8h7.6v15.8Zm.8,28.3h13.4a242.888,242.888,0,0,0,1.1,25.151,130.879,130.879,0,0,0,2.35,15.549q1.248,5.2,1.35,5.4h-14.4q-1.9-11-2.8-20.1T2620.337,1008.073Zm11.1-28.3v-15.8h7.6v15.8Z" fill="#f5d800"/>
        <path id="パス_59" data-name="パス 59" d="M2659.327,1004.773l-11.6.3v-15.4l11.7-.4v-14h15v13.5l41.6-1.4v15.5h-.1a36.245,36.245,0,0,1-8.3,15.649,59.762,59.762,0,0,1-11.45,9.851,55.439,55.439,0,0,1-9.6,5.1q-3.953,1.5-4.15,1.5v-15.8a9.072,9.072,0,0,0,2.3-.8,38.356,38.356,0,0,0,5.3-2.8,23.585,23.585,0,0,0,5.651-4.9,23.916,23.916,0,0,0,4.15-7.4l-25.4,1q-.3,9.3-.25,16.25t.25,12.351a19.691,19.691,0,0,0,1,4.6,5.629,5.629,0,0,0,2.65,3q1.95,1.1,7.05,1.3,4.9.1,10-.049t9.5-.451q4.4-.3,7.1-.6t2.8-.3v16.1q-.1,0-4.55.25t-11.149.4q-6.7.15-15.3-.051-10.9-.3-16.9-4.75t-6.8-16.149q-.2-7.9-.351-15.05T2659.327,1004.773Z" fill="#f5d800"/>
        <path id="パス_60" data-name="パス 60" d="M2724.065,1024.174v-15.7h46.2v15.7Z" fill="#f5d800"/>
        <path id="パス_61" data-name="パス 61" d="M2792.075,1055.374h-16.8a134.43,134.43,0,0,0,5.6-13.6,109.5,109.5,0,0,0,3.85-15.149,103.525,103.525,0,0,0,1.65-19.15v-28.4h15.1v28.4a131.519,131.519,0,0,1-2.45,26.6,99.289,99.289,0,0,1-4.55,16.051Q2792.275,1055.374,2792.075,1055.374Zm52.5-34.9v19.4a49,49,0,0,1-11.2,9.9,51.394,51.394,0,0,1-11,5.3,49.112,49.112,0,0,1-8.75,2.151,23.909,23.909,0,0,1-3.65.349v-79.6h15.2v57.9a38.49,38.49,0,0,0,6.5-3.45,40.568,40.568,0,0,0,6.3-5.1Q2840.975,1024.376,2844.575,1020.474Z" fill="#f5d800"/>
      </g>
      <g id="グループ_82" data-name="グループ 82" style="isolation: isolate">
        <path id="パス_62" data-name="パス 62" d="M2890.67,1010.4h-23.219v49.32H2854.67v-82.26h36Zm-12.24-23.85h-10.979v3.06h10.979Zm-10.979,14.67h10.979v-3.33h-10.979Zm39.689,39.06v17.82h-11.429v-17.82h-6.3a36.692,36.692,0,0,1-3.645,10.845,23.909,23.909,0,0,1-7.6,8.775,32.243,32.243,0,0,0-3.824-3.915,36.04,36.04,0,0,0-4.455-3.466,16.759,16.759,0,0,0,5.4-5.354,21.831,21.831,0,0,0,2.879-6.885h-7.74v-10.53h8.281v-5.13h-7.11v-10.17h43.019v10.17h-7.47v5.13h8.731v10.53Zm-17.37-10.53h5.941v-5.13h-5.941Zm42.21,15.3a23.217,23.217,0,0,1-.99,7.605,7.984,7.984,0,0,1-3.6,4.275,16.633,16.633,0,0,1-6.165,2.025,62.522,62.522,0,0,1-9.225.405,37.679,37.679,0,0,0-1.4-6.57,35.6,35.6,0,0,0-2.384-6.3q3.419.181,9.089.18a1.507,1.507,0,0,0,1.8-1.8v-34.2h-23.76v-33.21h36.63Zm-12.87-58.5h-11.34v3.06h11.34Zm-11.34,14.94h11.34v-3.6h-11.34Z" fill="#f5d800"/>
        <path id="パス_63" data-name="パス 63" d="M3025.4,1056.664h-39.24v2.88h-12.51V1024.8q-1.8,1.98-3.6,3.6a90.011,90.011,0,0,0-8.1-7.83v39.06h-12.42v-43.74q-1.35,1.71-4.41,5.129a62.79,62.79,0,0,0-3.106-7.019,70.986,70.986,0,0,0-3.734-6.75,74.335,74.335,0,0,0,11.069-14.625,99.377,99.377,0,0,0,8.46-18.045l12.33,3.87a157.569,157.569,0,0,1-8.189,18.09v21.33a51.672,51.672,0,0,0,8.234-9.09,60.343,60.343,0,0,0,6.346-11.07h-5.761v-20.7h11.88v9.81h7.471v-12.06h12.959v12.06h8.19v-9.81h12.511v20.7h-22.32l10.26,2.25-2.791,5.309h15.21v9.991h-16.83v4.14h14.58v9.27h-14.58v4.32h14.58v9.27h-14.58v4.41h18.09Zm-35.91-56.7q-.9,2.25-2.43,5.309h9.09q1.352-4.5,1.981-7.559H2981.75Zm5.4,19.44v-4.14h-8.73v4.14Zm0,13.59v-4.32h-8.73v4.32Zm-8.73,9.27v4.41h8.73v-4.41Z" fill="#f5d800"/>
      </g>
    </g>
    <g id="HIKARU" style="isolation: isolate">
      <g id="グループ_83" data-name="グループ 83" style="isolation: isolate">
        <path id="パス_64" data-name="パス 64" d="M2611.384,927.974V889.233h9.308V904h12.74V889.233h9.256v38.741h-9.256V912.062h-12.74v15.912Z" fill="#f5d800"/>
        <path id="パス_65" data-name="パス 65" d="M2655.927,927.974V889.233h9.308v38.741Z" fill="#f5d800"/>
        <path id="パス_66" data-name="パス 66" d="M2678.479,927.974V889.233h9.308v15.34h.156l10.972-15.34h10.192l-11.7,15.548,13.884,23.193h-10.14L2692,912.113l-4.212,5.721v10.14Z" fill="#f5d800"/>
        <path id="パス_67" data-name="パス 67" d="M2718.258,927.974l12.013-38.741H2741.4l12.012,38.741h-9.777l-2.235-8.892h-11.44l-2.237,8.892Zm13.468-16.069h7.905l-.832-3.275q-.624-2.235-1.612-6.553l-1.456-5.876h-.208q-2.028,8.736-2.965,12.429Z" fill="#f5d800"/>
        <path id="パス_68" data-name="パス 68" d="M2776.878,889.233q6.864,0,11,2.834t4.133,9.387a12.743,12.743,0,0,1-1.767,6.916,11.282,11.282,0,0,1-4.889,4.264l8.632,15.34h-10.4l-7.124-13.624h-4.473v13.624h-9.308V889.233Zm-.729,17.785a7.818,7.818,0,0,0,5.07-1.43,5.038,5.038,0,0,0,1.743-4.134,4.115,4.115,0,0,0-1.691-3.744,9.568,9.568,0,0,0-5.122-1.093h-4.16v10.4Z" fill="#f5d800"/>
        <path id="パス_69" data-name="パス 69" d="M2807.136,924.073q-3.927-4.628-3.925-14.3v-20.54h9.256v21.529q0,5.356,1.585,7.643a5.507,5.507,0,0,0,4.862,2.288,5.622,5.622,0,0,0,4.914-2.313q1.64-2.313,1.639-7.618V889.233h8.943v20.54q0,9.726-3.848,14.327t-11.648,4.6Q2811.061,928.7,2807.136,924.073Z" fill="#f5d800"/>
      </g>
    </g>
    <g id="グループ_84" data-name="グループ 84">
      <path id="パス_70" data-name="パス 70" d="M3028.823,905.7h-4.016l-1.453,2.515h-54.229l-14.886-14.673a.956.956,0,0,0-.675-.275h-56.282a.962.962,0,1,0,0,1.925h55.887l14.188,13.986-14.188,13.985h-55.887a.963.963,0,0,0,0,1.926h56.281a.959.959,0,0,0,.676-.277l14.885-14.671h54.23l1.452,2.515h4.016l2.008-3.478Z" fill="#f5d800"/>
      <path id="パス_71" data-name="パス 71" d="M2554.617,895.194a.962.962,0,1,0,0-1.925h-56.281a.96.96,0,0,0-.676.276l-14.885,14.672h-54.229l-1.452-2.515h-4.018l-2.007,3.482,2.007,3.478h4.018l1.452-2.516h54.228l14.885,14.671a.957.957,0,0,0,.677.278h56.281a.963.963,0,1,0,0-1.926H2498.73l-14.188-13.985,14.188-13.99Z" fill="#f5d800"/>
    </g>
  </g>
</svg>
