<svg xmlns="http://www.w3.org/2000/svg" width="332.554" height="104.501" viewBox="0 0 332.554 104.501">
  <g id="hikaru_logo" transform="translate(-4.969 -5.72)">
    <g id="HIKARU" style="isolation: isolate">
      <g id="グループ_103" data-name="グループ 103" style="isolation: isolate">
        <path id="パス_170" data-name="パス 170" d="M25.615,29.746V58.828H38.269V29.746H58.916V109H38.269V76.366H25.615V109H4.969V29.746Z"/>
        <path id="パス_171" data-name="パス 171" d="M88.551,29.746V109H67.9V29.746Z"/>
        <path id="パス_172" data-name="パス 172" d="M117.411,29.746V60.16h.221l15.319-30.414h21.977L134.949,64.378,157.371,109H133.838l-12.1-27.639-4.329,6.66V109H96.764V29.746Z"/>
        <path id="パス_173" data-name="パス 173" d="M198.218,29.746,217.533,109H195.554l-2.109-13.875H177.017L174.909,109H153.263l18.982-79.254Zm-13.1,16.206-5.662,33.633H191l-5.661-33.633Z"/>
        <path id="パス_174" data-name="パス 174" d="M253.275,29.746A28.824,28.824,0,0,1,263.32,31.3a17.214,17.214,0,0,1,6.771,4.385,16.948,16.948,0,0,1,3.774,6.715,29.251,29.251,0,0,1,1.166,8.436q0,7.992-3.219,12.876t-10.323,5.994v.222q7.436.666,10.212,5.217t2.775,12.543v9.99q0,1.665.11,3.164a25.727,25.727,0,0,0,.333,2.719,7.255,7.255,0,0,0,.555,1.887q.443.666.889,1.277a4.361,4.361,0,0,0,1.442,1.165V109H255.828a13.665,13.665,0,0,1-1.166-3.663,40.8,40.8,0,0,1-.555-4.218q-.165-2.108-.222-4.052T253.83,93.9V88.576a38.583,38.583,0,0,0-.333-5.55,8.836,8.836,0,0,0-1.165-3.5,4.445,4.445,0,0,0-2.11-1.775,8.729,8.729,0,0,0-3.163-.5H241.62V109H220.973V29.746Zm-7.548,33.522q4.437,0,6.549-2.609a10.526,10.526,0,0,0,2.108-6.826q0-5-2.052-7.1t-6.716-2.109h-4V63.268Z"/>
        <path id="パス_175" data-name="パス 175" d="M304.445,86.911q0,5.773,1.665,7.715a6.3,6.3,0,0,0,9.1,0q1.666-1.941,1.665-7.715V29.746h20.647V81.694a46.236,46.236,0,0,1-1.776,13.875,21.3,21.3,0,0,1-5.162,8.88A17.661,17.661,0,0,1,322.2,109a54.922,54.922,0,0,1-23.033,0,17.665,17.665,0,0,1-8.436-4.551,21.248,21.248,0,0,1-5.161-8.88A46.137,46.137,0,0,1,283.8,81.694V29.746h20.647Z"/>
      </g>
    </g>
    <g id="You_Tuber" data-name="You Tuber" style="isolation: isolate">
      <g id="グループ_104" data-name="グループ 104" style="isolation: isolate">
        <path id="パス_176" data-name="パス 176" d="M82.487,14.4,77.126,5.72h2.9l3.781,6.4,3.719-6.4h2.8l-5.34,8.68V20h-2.5Z"/>
        <path id="パス_177" data-name="パス 177" d="M106.307,20.28a5.615,5.615,0,0,1-2.21-.41,4.7,4.7,0,0,1-1.64-1.13,4.821,4.821,0,0,1-1.02-1.72,7.026,7.026,0,0,1,0-4.38,4.829,4.829,0,0,1,1.02-1.72,4.7,4.7,0,0,1,1.64-1.13,6.161,6.161,0,0,1,4.42,0,4.718,4.718,0,0,1,1.64,1.13,4.858,4.858,0,0,1,1.02,1.72,7.026,7.026,0,0,1,0,4.38,4.85,4.85,0,0,1-1.02,1.72,4.718,4.718,0,0,1-1.64,1.13A5.622,5.622,0,0,1,106.307,20.28Zm0-1.8a2.616,2.616,0,0,0,1.319-.32,2.771,2.771,0,0,0,.921-.84,3.677,3.677,0,0,0,.53-1.17,5.249,5.249,0,0,0,0-2.65,3.552,3.552,0,0,0-.53-1.17,2.829,2.829,0,0,0-.921-.83,2.88,2.88,0,0,0-2.639,0,2.826,2.826,0,0,0-.92.83,3.532,3.532,0,0,0-.53,1.17,5.248,5.248,0,0,0,0,2.65,3.655,3.655,0,0,0,.53,1.17,2.768,2.768,0,0,0,.92.84A2.617,2.617,0,0,0,106.307,18.48Z"/>
        <path id="パス_178" data-name="パス 178" d="M134.506,20h-2.24V18.56h-.04a3.131,3.131,0,0,1-1.25,1.25,3.4,3.4,0,0,1-1.69.47,3.8,3.8,0,0,1-2.95-1.01,4.433,4.433,0,0,1-.91-3.05V9.66h2.28V16a2.8,2.8,0,0,0,.52,1.92,1.9,1.9,0,0,0,1.46.56,2.875,2.875,0,0,0,1.2-.22,2.123,2.123,0,0,0,.78-.59,2.26,2.26,0,0,0,.43-.89,4.587,4.587,0,0,0,.13-1.12v-6h2.28Z"/>
        <path id="パス_179" data-name="パス 179" d="M165.426,5.72h11.561V7.88h-4.54V20h-2.5V7.88h-4.52Z"/>
        <path id="パス_180" data-name="パス 180" d="M197.566,20h-2.239V18.56h-.04a3.144,3.144,0,0,1-1.25,1.25,3.4,3.4,0,0,1-1.691.47,3.8,3.8,0,0,1-2.95-1.01,4.438,4.438,0,0,1-.909-3.05V9.66h2.279V16a2.8,2.8,0,0,0,.521,1.92,1.894,1.894,0,0,0,1.46.56,2.881,2.881,0,0,0,1.2-.22,2.119,2.119,0,0,0,.779-.59,2.262,2.262,0,0,0,.431-.89,4.637,4.637,0,0,0,.13-1.12v-6h2.279Z"/>
        <path id="パス_181" data-name="パス 181" d="M212.026,5.72h2.28V11h.04a3.135,3.135,0,0,1,.58-.68,3.647,3.647,0,0,1,.75-.51,3.9,3.9,0,0,1,.86-.32,3.745,3.745,0,0,1,.89-.11,4.935,4.935,0,0,1,2.13.43,4.2,4.2,0,0,1,1.51,1.18,5.122,5.122,0,0,1,.9,1.75,7.414,7.414,0,0,1,.3,2.14A7.57,7.57,0,0,1,222,16.9a5.261,5.261,0,0,1-.82,1.73,4,4,0,0,1-3.37,1.65,7.947,7.947,0,0,1-1.05-.07,3.994,3.994,0,0,1-1.01-.27,3.456,3.456,0,0,1-.871-.52,2.529,2.529,0,0,1-.649-.84h-.04V20h-2.16Zm7.96,9.12a5.144,5.144,0,0,0-.18-1.36,3.7,3.7,0,0,0-.54-1.17,2.792,2.792,0,0,0-.9-.82,2.445,2.445,0,0,0-1.241-.31,2.516,2.516,0,0,0-2.169,1,4.411,4.411,0,0,0-.73,2.66,5.281,5.281,0,0,0,.19,1.45,3.255,3.255,0,0,0,.57,1.15,2.827,2.827,0,0,0,.91.76,2.588,2.588,0,0,0,1.229.28,2.554,2.554,0,0,0,1.321-.32,2.781,2.781,0,0,0,.889-.83,3.329,3.329,0,0,0,.5-1.16A5.84,5.84,0,0,0,219.986,14.84Z"/>
        <path id="パス_182" data-name="パス 182" d="M237.966,15.42a3.981,3.981,0,0,0,.17,1.16,2.867,2.867,0,0,0,.51.98,2.471,2.471,0,0,0,.86.67,2.848,2.848,0,0,0,1.24.25,2.736,2.736,0,0,0,1.61-.43,2.545,2.545,0,0,0,.91-1.29h2.16a4.287,4.287,0,0,1-1.68,2.61,4.58,4.58,0,0,1-1.39.68,5.61,5.61,0,0,1-1.61.23,5.486,5.486,0,0,1-2.16-.4A4.463,4.463,0,0,1,237,18.76a4.755,4.755,0,0,1-.98-1.72,6.989,6.989,0,0,1-.33-2.2,6.2,6.2,0,0,1,.35-2.09,5.35,5.35,0,0,1,1-1.74,4.691,4.691,0,0,1,3.65-1.63,4.633,4.633,0,0,1,2.19.51,4.806,4.806,0,0,1,1.61,1.35,5.488,5.488,0,0,1,.931,1.93,5.928,5.928,0,0,1,.149,2.25Zm5.32-1.5a3.682,3.682,0,0,0-.23-1.04,2.785,2.785,0,0,0-.52-.87,2.584,2.584,0,0,0-.8-.6,2.362,2.362,0,0,0-1.05-.23,2.737,2.737,0,0,0-1.09.21,2.5,2.5,0,0,0-.84.58,2.883,2.883,0,0,0-.56.87,3.029,3.029,0,0,0-.23,1.08Z"/>
        <path id="パス_183" data-name="パス 183" d="M259.306,9.66h2.14v2h.04a2.294,2.294,0,0,1,.389-.82,3.8,3.8,0,0,1,.7-.73,3.54,3.54,0,0,1,.91-.53,2.727,2.727,0,0,1,1.019-.2,5.051,5.051,0,0,1,.551.02l.31.04v2.2c-.16-.027-.324-.05-.491-.07a4.115,4.115,0,0,0-.49-.03,2.628,2.628,0,0,0-1.09.23,2.513,2.513,0,0,0-.889.68,3.327,3.327,0,0,0-.6,1.11,4.8,4.8,0,0,0-.221,1.52V20h-2.279Z"/>
      </g>
    </g>
  </g>
</svg>
