<svg xmlns="http://www.w3.org/2000/svg" width="331.157" height="94.851" viewBox="0 0 331.157 94.851">
  <g id="hikaru_collaboration_logo_E_SP" transform="translate(0)">
    <g id="グループ_93" data-name="グループ 93" transform="translate(0 24.826)">
      <path id="パス_121" data-name="パス 121" d="M2542.245,1710.3v-28.1H2549v10.713h9.242v-10.713h6.714v28.1h-6.714v-11.543H2549V1710.3Z" transform="translate(-2463.011 -1678.949)" fill="#f5d800"/>
      <path id="パス_122" data-name="パス 122" d="M2601.963,1715.819a10.076,10.076,0,0,1-3.867-3.922,13.07,13.07,0,0,1,0-11.977,10.12,10.12,0,0,1,3.867-3.9,10.583,10.583,0,0,1,10.373,0,10.134,10.134,0,0,1,3.866,3.9,13.076,13.076,0,0,1,0,11.977,10.091,10.091,0,0,1-3.866,3.922,10.58,10.58,0,0,1-10.373,0Zm7.921-5.62a8.547,8.547,0,0,0,.906-4.3,8.438,8.438,0,0,0-.906-4.281,2.956,2.956,0,0,0-2.716-1.528,2.988,2.988,0,0,0-2.754,1.528,8.436,8.436,0,0,0-.906,4.281,8.523,8.523,0,0,0,.906,4.319,2.987,2.987,0,0,0,2.754,1.528A2.949,2.949,0,0,0,2609.885,1710.2Z" transform="translate(-2490.741 -1685.303)" fill="#f5d800"/>
      <path id="パス_123" data-name="パス 123" d="M2647.85,1706.744a9.365,9.365,0,0,1-1.415-5.545v-23.161h6.715v23.387a2.313,2.313,0,0,0,.339,1.414,1.019,1.019,0,0,0,.83.434,3.793,3.793,0,0,0,.755-.075l.792,4.942a8.653,8.653,0,0,1-3.32.566Q2649.264,1708.705,2647.85,1706.744Z" transform="translate(-2516.123 -1676.831)" fill="#f5d800"/>
      <path id="パス_124" data-name="パス 124" d="M2672.54,1707.347a8.667,8.667,0,0,1-3.055-3.9,15.387,15.387,0,0,1-1.075-6.017,13.24,13.24,0,0,1,1.264-5.923,9.908,9.908,0,0,1,3.3-3.942,7.557,7.557,0,0,1,4.3-1.377,6.647,6.647,0,0,1,2.829.547,8.762,8.762,0,0,1,2.339,1.678l-.226-3.206v-7.167h6.714v30.14h-5.469l-.49-2.075h-.151a9.646,9.646,0,0,1-2.659,1.887,6.8,6.8,0,0,1-2.961.717A8.033,8.033,0,0,1,2672.54,1707.347Zm8.223-4.545a4.06,4.06,0,0,0,1.453-1.415v-8.45a4.792,4.792,0,0,0-3.358-1.282,3.008,3.008,0,0,0-2.527,1.452,7.37,7.37,0,0,0-1.018,4.244q0,5.847,3.658,5.846A3.878,3.878,0,0,0,2680.763,1702.8Z" transform="translate(-2527.325 -1676.831)" fill="#f5d800"/>
      <path id="パス_125" data-name="パス 125" d="M2719.9,1681.536a3.278,3.278,0,0,1-1.018-2.528,3.233,3.233,0,0,1,1.018-2.489,4.357,4.357,0,0,1,5.413,0,3.2,3.2,0,0,1,1.037,2.489,3.249,3.249,0,0,1-1.037,2.528,4.355,4.355,0,0,1-5.413,0Zm-.641,25.386v-21.463h6.715v21.463Z" transform="translate(-2553.052 -1675.576)" fill="#f5d800"/>
      <path id="パス_126" data-name="パス 126" d="M2742.762,1695.186h5.47l.49,2.679h.113a13.33,13.33,0,0,1,3.188-2.339,7.888,7.888,0,0,1,3.678-.868,5.787,5.787,0,0,1,5.036,2.282,10.88,10.88,0,0,1,1.641,6.431v13.278h-6.715V1704.2a5.47,5.47,0,0,0-.585-2.98,2.168,2.168,0,0,0-1.9-.829,3.661,3.661,0,0,0-1.849.452,9.923,9.923,0,0,0-1.848,1.471v14.334h-6.714Z" transform="translate(-2565.228 -1685.303)" fill="#f5d800"/>
      <path id="パス_127" data-name="パス 127" d="M2791.417,1724.326a4.339,4.339,0,0,1-2.49-4.055q0-2.679,3.018-4.224v-.189a4.208,4.208,0,0,1-1.961-3.7,4.107,4.107,0,0,1,.66-2.169,6.064,6.064,0,0,1,1.754-1.829v-.151a7.125,7.125,0,0,1-2.093-2.339,6.374,6.374,0,0,1-.85-3.244,7.143,7.143,0,0,1,1.246-4.244,7.712,7.712,0,0,1,3.282-2.64,11.045,11.045,0,0,1,4.451-.886,10.242,10.242,0,0,1,3.4.528h7.884v4.866h-3.282a5.742,5.742,0,0,1,.566,2.6,6.356,6.356,0,0,1-2.376,5.394,9.932,9.932,0,0,1-6.187,1.81,9.483,9.483,0,0,1-2.527-.377,2.78,2.78,0,0,0-.528.679,1.876,1.876,0,0,0-.151.83,1.137,1.137,0,0,0,.736,1.094,6.269,6.269,0,0,0,2.433.339h3.4a11.657,11.657,0,0,1,6.187,1.339,4.584,4.584,0,0,1,2.112,4.168,6.028,6.028,0,0,1-1.49,4.017,9.681,9.681,0,0,1-4.262,2.735,19.278,19.278,0,0,1-6.432.981A13.676,13.676,0,0,1,2791.417,1724.326Zm10.9-3.527q1.321-.679,1.32-1.7a1.209,1.209,0,0,0-.754-1.226,6.5,6.5,0,0,0-2.376-.321h-2.037a12.556,12.556,0,0,1-3.055-.264,2.536,2.536,0,0,0-.981,1.924,1.828,1.828,0,0,0,1.226,1.678,7.762,7.762,0,0,0,3.3.584A7.309,7.309,0,0,0,2802.319,1720.8Zm-1.886-15.843a3.745,3.745,0,0,0,.754-2.527,3.545,3.545,0,0,0-.754-2.433,2.542,2.542,0,0,0-2-.849,2.477,2.477,0,0,0-1.961.868,3.559,3.559,0,0,0-.754,2.414,3.759,3.759,0,0,0,.754,2.509,2.453,2.453,0,0,0,1.961.886A2.516,2.516,0,0,0,2800.433,1704.956Z" transform="translate(-2588.761 -1685.303)" fill="#f5d800"/>
      <path id="パス_128" data-name="パス 128" d="M2859.49,1716.31a5.813,5.813,0,0,1-2.226-2.358,7.053,7.053,0,0,1-.773-3.3,6.032,6.032,0,0,1,2.829-5.319q2.829-1.886,9.091-2.565a2.986,2.986,0,0,0-.886-2.056,3.431,3.431,0,0,0-2.358-.7,7.763,7.763,0,0,0-2.584.471,20.307,20.307,0,0,0-3.037,1.415l-2.338-4.414a17.91,17.91,0,0,1,9.242-2.829,8.3,8.3,0,0,1,6.45,2.433q2.225,2.433,2.226,7.375v12.184h-5.469l-.452-2.15h-.189a9.165,9.165,0,0,1-6.149,2.679A6.46,6.46,0,0,1,2859.49,1716.31Zm7.375-4.753a6.211,6.211,0,0,0,1.547-1.283v-3.433q-5.546.718-5.545,3.282a1.64,1.64,0,0,0,.6,1.377,2.7,2.7,0,0,0,1.7.471A3.459,3.459,0,0,0,2866.865,1711.557Z" transform="translate(-2623.203 -1685.303)" fill="#f5d800"/>
      <path id="パス_129" data-name="パス 129" d="M2385.825,1793.659a9.576,9.576,0,0,1-3.81-3.9,12.441,12.441,0,0,1-1.4-6.036,11.286,11.286,0,0,1,1.547-5.978,10.471,10.471,0,0,1,4.112-3.9,11.825,11.825,0,0,1,5.62-1.358,9.313,9.313,0,0,1,6.261,2.3l-3.131,4.263a4.309,4.309,0,0,0-6.243.434,6.434,6.434,0,0,0-1.3,4.243,6.593,6.593,0,0,0,1.282,4.244,4.019,4.019,0,0,0,3.281,1.6,6,6,0,0,0,3.734-1.509l2.6,4.414a9.137,9.137,0,0,1-3.357,1.924,12.218,12.218,0,0,1-3.735.6A11.085,11.085,0,0,1,2385.825,1793.659Z" transform="translate(-2380.62 -1724.974)" fill="#f5d800"/>
      <path id="パス_130" data-name="パス 130" d="M2424.318,1793.641a10.08,10.08,0,0,1-3.866-3.923,13.069,13.069,0,0,1,0-11.976,10.119,10.119,0,0,1,3.866-3.9,10.587,10.587,0,0,1,10.374,0,10.124,10.124,0,0,1,3.866,3.9,13.075,13.075,0,0,1,0,11.976,10.084,10.084,0,0,1-3.866,3.923,10.585,10.585,0,0,1-10.374,0Zm7.922-5.62a8.55,8.55,0,0,0,.9-4.3,8.441,8.441,0,0,0-.9-4.281,2.957,2.957,0,0,0-2.716-1.528,2.988,2.988,0,0,0-2.754,1.528,8.433,8.433,0,0,0-.905,4.281,8.524,8.524,0,0,0,.905,4.319,2.988,2.988,0,0,0,2.754,1.528A2.95,2.95,0,0,0,2432.24,1788.02Z" transform="translate(-2400.184 -1724.974)" fill="#f5d800"/>
      <path id="パス_131" data-name="パス 131" d="M2470.205,1784.564a9.366,9.366,0,0,1-1.414-5.545v-23.161h6.714v23.387a2.316,2.316,0,0,0,.339,1.415,1.021,1.021,0,0,0,.83.434,3.82,3.82,0,0,0,.754-.075l.792,4.941a8.634,8.634,0,0,1-3.319.566Q2471.62,1786.526,2470.205,1784.564Z" transform="translate(-2425.566 -1716.501)" fill="#f5d800"/>
      <path id="パス_132" data-name="パス 132" d="M2494.312,1784.564a9.366,9.366,0,0,1-1.415-5.545v-23.161h6.714v23.387a2.314,2.314,0,0,0,.34,1.415,1.02,1.02,0,0,0,.83.434,3.827,3.827,0,0,0,.754-.075l.792,4.941a8.635,8.635,0,0,1-3.32.566Q2495.726,1786.526,2494.312,1784.564Z" transform="translate(-2437.855 -1716.501)" fill="#f5d800"/>
      <path id="パス_133" data-name="パス 133" d="M2518.332,1794.131a5.817,5.817,0,0,1-2.226-2.358,7.056,7.056,0,0,1-.773-3.3,6.032,6.032,0,0,1,2.829-5.319q2.829-1.886,9.09-2.565a2.981,2.981,0,0,0-.886-2.056,3.432,3.432,0,0,0-2.358-.7,7.764,7.764,0,0,0-2.583.472,20.185,20.185,0,0,0-3.037,1.414l-2.338-4.414a17.908,17.908,0,0,1,9.242-2.829,8.3,8.3,0,0,1,6.45,2.433q2.225,2.432,2.226,7.374v12.184H2528.5l-.453-2.15h-.189a9.163,9.163,0,0,1-6.148,2.678A6.455,6.455,0,0,1,2518.332,1794.131Zm7.375-4.753a6.2,6.2,0,0,0,1.546-1.282v-3.432q-5.544.717-5.544,3.282a1.639,1.639,0,0,0,.6,1.376,2.69,2.69,0,0,0,1.7.472A3.463,3.463,0,0,0,2525.706,1789.378Z" transform="translate(-2449.292 -1724.974)" fill="#f5d800"/>
      <path id="パス_134" data-name="パス 134" d="M2571.027,1785.809a9.1,9.1,0,0,1-2.659-2.112h-.189l-.528,2.3h-5.243v-30.14h6.714v7.243l-.188,3.206a9.291,9.291,0,0,1,2.641-1.7,7.435,7.435,0,0,1,2.9-.6,7.517,7.517,0,0,1,4.432,1.339,8.578,8.578,0,0,1,2.942,3.81,14.67,14.67,0,0,1,1.038,5.715,14.278,14.278,0,0,1-1.264,6.224,9.829,9.829,0,0,1-3.338,4.036,7.774,7.774,0,0,1-4.413,1.4A6.248,6.248,0,0,1,2571.027,1785.809Zm3.942-6.262a10.658,10.658,0,0,0,.17-8.714,2.874,2.874,0,0,0-2.622-1.357,3.562,3.562,0,0,0-1.736.433,6.76,6.76,0,0,0-1.659,1.377v8.487a4.541,4.541,0,0,0,3.168,1.245A3.12,3.12,0,0,0,2574.969,1779.547Z" transform="translate(-2473.289 -1716.501)" fill="#f5d800"/>
      <path id="パス_135" data-name="パス 135" d="M2614.57,1793.641a10.076,10.076,0,0,1-3.866-3.923,13.069,13.069,0,0,1,0-11.976,10.115,10.115,0,0,1,3.866-3.9,10.587,10.587,0,0,1,10.374,0,10.129,10.129,0,0,1,3.867,3.9,13.077,13.077,0,0,1,0,11.976,10.09,10.09,0,0,1-3.867,3.923,10.585,10.585,0,0,1-10.374,0Zm7.921-5.62a8.547,8.547,0,0,0,.905-4.3,8.438,8.438,0,0,0-.905-4.281,2.956,2.956,0,0,0-2.716-1.528,2.988,2.988,0,0,0-2.753,1.528,8.438,8.438,0,0,0-.906,4.281,8.529,8.529,0,0,0,.906,4.319,2.988,2.988,0,0,0,2.753,1.528A2.949,2.949,0,0,0,2622.491,1788.02Z" transform="translate(-2497.168 -1724.974)" fill="#f5d800"/>
      <path id="パス_136" data-name="パス 136" d="M2659.189,1773.007h5.47l.49,3.734h.113a8.739,8.739,0,0,1,2.772-3.169,5.963,5.963,0,0,1,3.339-1.093,6.439,6.439,0,0,1,2.6.453l-1.094,5.771a10.676,10.676,0,0,0-2.376-.34,4.284,4.284,0,0,0-2.584.943,6.344,6.344,0,0,0-2.018,2.9v12.26h-6.715Z" transform="translate(-2522.624 -1724.974)" fill="#f5d800"/>
      <path id="パス_137" data-name="パス 137" d="M2694.781,1794.131a5.817,5.817,0,0,1-2.226-2.358,7.053,7.053,0,0,1-.773-3.3,6.033,6.033,0,0,1,2.829-5.319q2.829-1.886,9.091-2.565a2.988,2.988,0,0,0-.886-2.056,3.434,3.434,0,0,0-2.358-.7,7.778,7.778,0,0,0-2.585.472,20.27,20.27,0,0,0-3.036,1.414l-2.338-4.414a17.908,17.908,0,0,1,9.241-2.829,8.3,8.3,0,0,1,6.45,2.433q2.225,2.432,2.226,7.374v12.184h-5.469l-.453-2.15h-.188a9.165,9.165,0,0,1-6.149,2.678A6.456,6.456,0,0,1,2694.781,1794.131Zm7.375-4.753a6.2,6.2,0,0,0,1.547-1.282v-3.432q-5.545.717-5.546,3.282a1.64,1.64,0,0,0,.6,1.376,2.691,2.691,0,0,0,1.7.472A3.464,3.464,0,0,0,2702.156,1789.378Z" transform="translate(-2539.24 -1724.974)" fill="#f5d800"/>
      <path id="パス_138" data-name="パス 138" d="M2739.116,1787.38a9.548,9.548,0,0,1-1.849-6.243v-8.261h-2.9V1767.9l3.32-.264.754-5.7h5.545v5.7h5.055v5.244h-5.055v8.185a3.645,3.645,0,0,0,.736,2.509,2.54,2.54,0,0,0,1.981.811,6.081,6.081,0,0,0,1.961-.415l1.056,4.866a20.226,20.226,0,0,1-2.32.584,13.994,13.994,0,0,1-2.546.208Q2740.964,1789.624,2739.116,1787.38Z" transform="translate(-2560.946 -1719.6)" fill="#f5d800"/>
      <path id="パス_139" data-name="パス 139" d="M2771.722,1759.356a3.276,3.276,0,0,1-1.019-2.527,3.23,3.23,0,0,1,1.019-2.49,4.354,4.354,0,0,1,5.412,0,3.2,3.2,0,0,1,1.037,2.49,3.247,3.247,0,0,1-1.037,2.527,4.354,4.354,0,0,1-5.412,0Zm-.641,25.387v-21.464h6.714v21.464Z" transform="translate(-2579.471 -1715.246)" fill="#f5d800"/>
      <path id="パス_140" data-name="パス 140" d="M2797.351,1793.641a10.077,10.077,0,0,1-3.866-3.923,13.067,13.067,0,0,1,0-11.976,10.117,10.117,0,0,1,3.866-3.9,10.587,10.587,0,0,1,10.374,0,10.127,10.127,0,0,1,3.866,3.9,13.071,13.071,0,0,1,0,11.976,10.087,10.087,0,0,1-3.866,3.923,10.585,10.585,0,0,1-10.374,0Zm7.921-5.62a8.541,8.541,0,0,0,.906-4.3,8.433,8.433,0,0,0-.906-4.281,2.956,2.956,0,0,0-2.716-1.528,2.988,2.988,0,0,0-2.754,1.528,8.438,8.438,0,0,0-.905,4.281,8.53,8.53,0,0,0,.905,4.319,2.989,2.989,0,0,0,2.754,1.528A2.949,2.949,0,0,0,2805.272,1788.02Z" transform="translate(-2590.344 -1724.974)" fill="#f5d800"/>
      <path id="パス_141" data-name="パス 141" d="M2841.97,1773.007h5.47l.49,2.679h.113a13.372,13.372,0,0,1,3.188-2.339,7.886,7.886,0,0,1,3.678-.867,5.786,5.786,0,0,1,5.036,2.282,10.878,10.878,0,0,1,1.641,6.432v13.278h-6.715v-12.448a5.472,5.472,0,0,0-.585-2.98,2.167,2.167,0,0,0-1.9-.83,3.659,3.659,0,0,0-1.848.453,9.889,9.889,0,0,0-1.849,1.471v14.334h-6.714Z" transform="translate(-2615.8 -1724.974)" fill="#f5d800"/>
      <path id="パス_142" data-name="パス 142" d="M2912.225,1794.168a13.434,13.434,0,0,1-3.923-2.187l2.98-4.187a9.425,9.425,0,0,0,5.431,2.263q2.527,0,2.528-1.7a1.476,1.476,0,0,0-.83-1.263,15.222,15.222,0,0,0-2.6-1.151l-.83-.34a11.864,11.864,0,0,1-3.923-2.433,5.171,5.171,0,0,1-1.546-3.9,6.213,6.213,0,0,1,1.037-3.546,6.776,6.776,0,0,1,2.9-2.4,10.44,10.44,0,0,1,4.357-.849,12.348,12.348,0,0,1,7.657,2.753l-2.98,4a8.162,8.162,0,0,0-4.451-1.811q-2.263,0-2.263,1.547a1.4,1.4,0,0,0,.793,1.226,10.261,10.261,0,0,0,1.867.849q1.074.378,1.414.49a12.626,12.626,0,0,1,4.112,2.415,5.231,5.231,0,0,1,1.547,4.036,6.487,6.487,0,0,1-1.038,3.6,6.865,6.865,0,0,1-3.055,2.508,11.786,11.786,0,0,1-4.847.906A12.6,12.6,0,0,1,2912.225,1794.168Z" transform="translate(-2649.614 -1724.974)" fill="#f5d800"/>
      <path id="パス_143" data-name="パス 143" d="M2951.12,1794.131a5.813,5.813,0,0,1-2.226-2.358,7.053,7.053,0,0,1-.773-3.3,6.033,6.033,0,0,1,2.829-5.319q2.829-1.886,9.09-2.565a2.986,2.986,0,0,0-.886-2.056,3.433,3.433,0,0,0-2.358-.7,7.773,7.773,0,0,0-2.584.472,20.238,20.238,0,0,0-3.037,1.414l-2.339-4.414a17.912,17.912,0,0,1,9.242-2.829,8.3,8.3,0,0,1,6.45,2.433q2.225,2.432,2.226,7.374v12.184h-5.47l-.452-2.15h-.189A9.163,9.163,0,0,1,2954.5,1795,6.455,6.455,0,0,1,2951.12,1794.131Zm7.375-4.753a6.184,6.184,0,0,0,1.546-1.282v-3.432q-5.544.717-5.545,3.282a1.64,1.64,0,0,0,.6,1.376,2.691,2.691,0,0,0,1.7.472A3.463,3.463,0,0,0,2958.494,1789.378Z" transform="translate(-2669.912 -1724.974)" fill="#f5d800"/>
      <path id="パス_144" data-name="パス 144" d="M2996.372,1784.564a9.362,9.362,0,0,1-1.415-5.545v-23.161h6.714v23.387a2.314,2.314,0,0,0,.34,1.415,1.02,1.02,0,0,0,.83.434,3.82,3.82,0,0,0,.754-.075l.793,4.941a8.636,8.636,0,0,1-3.319.566Q2997.786,1786.526,2996.372,1784.564Z" transform="translate(-2693.788 -1716.501)" fill="#f5d800"/>
      <path id="パス_145" data-name="パス 145" d="M3021.916,1793.659a9.718,9.718,0,0,1-3.9-3.9,12.173,12.173,0,0,1-1.433-6.036,11.828,11.828,0,0,1,1.433-5.9,10.438,10.438,0,0,1,3.772-3.941,9.557,9.557,0,0,1,4.979-1.4,9.109,9.109,0,0,1,5.074,1.339,8.294,8.294,0,0,1,3.093,3.678,13,13,0,0,1,1.037,5.319,11.018,11.018,0,0,1-.3,2.9h-12.6a4.981,4.981,0,0,0,1.848,3.131,5.794,5.794,0,0,0,3.508,1.018,8.871,8.871,0,0,0,4.527-1.358l2.225,4.037a12.707,12.707,0,0,1-3.678,1.81,13.337,13.337,0,0,1-3.98.641A11.564,11.564,0,0,1,3021.916,1793.659Zm8.355-12.354a4.094,4.094,0,0,0-.83-2.7,3.146,3.146,0,0,0-2.565-1,3.669,3.669,0,0,0-2.528.943,4.725,4.725,0,0,0-1.4,2.754Z" transform="translate(-2704.809 -1724.974)" fill="#f5d800"/>
    </g>
    <g id="HIKARU" transform="translate(110.911)" style="isolation: isolate">
      <g id="グループ_94" data-name="グループ 94" style="isolation: isolate">
        <path id="パス_146" data-name="パス 146" d="M2606.861,1643.927v-18.992h4.563v7.24h6.246v-7.24h4.538v18.992h-4.538v-7.8h-6.246v7.8Z" transform="translate(-2606.861 -1624.935)" fill="#f5d800"/>
        <path id="パス_147" data-name="パス 147" d="M2651.4,1643.927v-18.992h4.563v18.992Z" transform="translate(-2629.568 -1624.935)" fill="#f5d800"/>
        <path id="パス_148" data-name="パス 148" d="M2673.956,1643.927v-18.992h4.563v7.52h.077l5.379-7.52h5l-5.736,7.622,6.807,11.37h-4.971l-4.486-7.775-2.065,2.8v4.971Z" transform="translate(-2641.064 -1624.935)" fill="#f5d800"/>
        <path id="パス_149" data-name="パス 149" d="M2713.735,1643.927l5.889-18.992h5.456l5.889,18.992h-4.793l-1.1-4.359h-5.608l-1.1,4.359Zm6.6-7.877h3.875l-.408-1.606q-.306-1.1-.79-3.212l-.714-2.881h-.1q-1,4.283-1.454,6.093Z" transform="translate(-2661.342 -1624.935)" fill="#f5d800"/>
        <path id="パス_150" data-name="パス 150" d="M2765.117,1624.935a9.379,9.379,0,0,1,5.392,1.389q2.026,1.39,2.026,4.6a6.252,6.252,0,0,1-.866,3.39,5.527,5.527,0,0,1-2.4,2.09l4.231,7.52h-5.1l-3.493-6.679h-2.192v6.679h-4.563v-18.992Zm-.357,8.718a3.834,3.834,0,0,0,2.486-.7,2.472,2.472,0,0,0,.854-2.027,2.015,2.015,0,0,0-.828-1.835,4.689,4.689,0,0,0-2.511-.536h-2.039v5.1Z" transform="translate(-2683.987 -1624.935)" fill="#f5d800"/>
        <path id="パス_151" data-name="パス 151" d="M2800.612,1642.015q-1.925-2.268-1.925-7.01v-10.069h4.538v10.554a6.8,6.8,0,0,0,.778,3.747,2.7,2.7,0,0,0,2.384,1.122,2.756,2.756,0,0,0,2.409-1.134,6.634,6.634,0,0,0,.8-3.735v-10.554h4.384V1635q0,4.768-1.886,7.023t-5.71,2.256A7.148,7.148,0,0,1,2800.612,1642.015Z" transform="translate(-2704.647 -1624.935)" fill="#f5d800"/>
      </g>
    </g>
    <g id="グループ_95" data-name="グループ 95" transform="translate(16.116 1.979)">
      <path id="パス_152" data-name="パス 152" d="M2953.7,1635.066h-1.969l-.712,1.233h-26.585l-7.3-7.193a.47.47,0,0,0-.331-.135h-27.591a.472.472,0,1,0,0,.944h27.4l6.956,6.856-6.956,6.855h-27.4a.472.472,0,0,0,0,.945h27.591a.471.471,0,0,0,.331-.136l7.3-7.192h26.586l.712,1.233h1.969l.984-1.7Z" transform="translate(-2655.76 -1628.971)" fill="#f5d800"/>
      <path id="パス_153" data-name="パス 153" d="M2478.964,1629.915a.472.472,0,1,0,0-.944h-27.592a.47.47,0,0,0-.331.135l-7.3,7.193h-26.585l-.712-1.233h-1.97l-.983,1.707.983,1.7h1.97l.712-1.233h26.585l7.3,7.191a.474.474,0,0,0,.332.137h27.592a.472.472,0,0,0,0-.945h-27.4l-6.956-6.855,6.956-6.858Z" transform="translate(-2413.494 -1628.971)" fill="#f5d800"/>
    </g>
  </g>
</svg>
