<svg xmlns="http://www.w3.org/2000/svg" width="1187.21" height="177.996" viewBox="0 0 1187.21 177.996">
  <g id="hikaru_collaboration_logo_E_PC" transform="translate(-2124.769 -1384.778)">
    <g id="グループ_85" data-name="グループ 85">
      <path id="パス_72" data-name="パス 72" d="M2124.769,1541.842V1476.6h15.676v24.872H2161.9V1476.6h15.589v65.246H2161.9v-26.8h-21.457v26.8Z" fill="#f5d800"/>
      <path id="パス_73" data-name="パス 73" d="M2199.035,1539.915a23.4,23.4,0,0,1-8.977-9.108,30.339,30.339,0,0,1,0-27.806,23.489,23.489,0,0,1,8.977-9.065,24.579,24.579,0,0,1,24.084,0A23.516,23.516,0,0,1,2232.1,1503a30.355,30.355,0,0,1,0,27.806,23.424,23.424,0,0,1-8.977,9.108,24.572,24.572,0,0,1-24.084,0Zm18.391-13.049q2.1-3.591,2.1-9.984t-2.1-9.94a6.865,6.865,0,0,0-6.306-3.548,6.938,6.938,0,0,0-6.393,3.548q-2.1,3.546-2.1,9.94,0,6.483,2.1,10.028a6.937,6.937,0,0,0,6.393,3.547A6.847,6.847,0,0,0,2217.426,1526.866Z" fill="#f5d800"/>
      <path id="パス_74" data-name="パス 74" d="M2246.642,1538.514q-3.284-4.553-3.284-12.874v-53.774h15.589v54.3a5.375,5.375,0,0,0,.787,3.284,2.371,2.371,0,0,0,1.927,1.008,8.821,8.821,0,0,0,1.752-.176l1.84,11.474a20.062,20.062,0,0,1-7.708,1.313Q2249.927,1543.068,2246.642,1538.514Z" fill="#f5d800"/>
      <path id="パス_75" data-name="パス 75" d="M2277.958,1539.915a20.123,20.123,0,0,1-7.093-9.064,35.746,35.746,0,0,1-2.5-13.969,30.725,30.725,0,0,1,2.935-13.75,23,23,0,0,1,7.663-9.152,17.534,17.534,0,0,1,9.983-3.2,15.426,15.426,0,0,1,6.569,1.27,20.336,20.336,0,0,1,5.43,3.9l-.525-7.444v-16.64h15.589v69.976h-12.7l-1.139-4.817h-.35a22.387,22.387,0,0,1-6.174,4.379,15.766,15.766,0,0,1-6.875,1.664A18.657,18.657,0,0,1,2277.958,1539.915Zm19.093-10.553a9.41,9.41,0,0,0,3.372-3.284V1506.46a11.124,11.124,0,0,0-7.8-2.977,6.983,6.983,0,0,0-5.868,3.371q-2.364,3.372-2.364,9.853,0,13.577,8.5,13.574A9.006,9.006,0,0,0,2297.051,1529.362Z" fill="#f5d800"/>
      <path id="パス_76" data-name="パス 76" d="M2328.175,1482.9a7.611,7.611,0,0,1-2.364-5.868,7.505,7.505,0,0,1,2.364-5.779,10.11,10.11,0,0,1,12.568,0,7.435,7.435,0,0,1,2.409,5.779,7.539,7.539,0,0,1-2.409,5.868,10.111,10.111,0,0,1-12.568,0Zm-1.488,58.941v-49.833h15.589v49.833Z" fill="#f5d800"/>
      <path id="パス_77" data-name="パス 77" d="M2353,1492.009h12.7l1.138,6.219h.263a31,31,0,0,1,7.4-5.43,18.314,18.314,0,0,1,8.539-2.014q7.883,0,11.692,5.3t3.81,14.932v30.828h-15.59v-28.9q0-4.992-1.357-6.919a5.035,5.035,0,0,0-4.423-1.926,8.5,8.5,0,0,0-4.291,1.05,23.019,23.019,0,0,0-4.291,3.416v33.28H2353Z" fill="#f5d800"/>
      <path id="パス_78" data-name="パス 78" d="M2411.322,1559.664a10.072,10.072,0,0,1-5.78-9.415q0-6.219,7.006-9.808V1540a9.772,9.772,0,0,1-4.553-8.583,9.526,9.526,0,0,1,1.532-5.036,14.071,14.071,0,0,1,4.072-4.247v-.351a16.56,16.56,0,0,1-4.86-5.429,14.8,14.8,0,0,1-1.971-7.532,16.582,16.582,0,0,1,2.89-9.853,17.914,17.914,0,0,1,7.62-6.131,25.629,25.629,0,0,1,10.334-2.057,23.773,23.773,0,0,1,7.882,1.225h18.3v11.3h-7.619a13.338,13.338,0,0,1,1.313,6.044q0,8.32-5.517,12.523t-14.363,4.2a22,22,0,0,1-5.868-.876,6.445,6.445,0,0,0-1.226,1.576,4.366,4.366,0,0,0-.35,1.927,2.639,2.639,0,0,0,1.708,2.54,14.577,14.577,0,0,0,5.649.788h7.882q9.459,0,14.362,3.109t4.905,9.678a14,14,0,0,1-3.459,9.327,22.484,22.484,0,0,1-9.9,6.349,44.724,44.724,0,0,1-14.932,2.278Q2417.1,1562.774,2411.322,1559.664Zm25.31-8.188q3.066-1.576,3.066-3.941a2.81,2.81,0,0,0-1.752-2.847,15.064,15.064,0,0,0-5.517-.744H2427.7a29.117,29.117,0,0,1-7.094-.613,5.893,5.893,0,0,0-2.277,4.466q0,2.539,2.846,3.9a18.015,18.015,0,0,0,7.663,1.357A16.985,16.985,0,0,0,2436.632,1551.476Zm-4.379-36.784a8.69,8.69,0,0,0,1.752-5.867,8.229,8.229,0,0,0-1.752-5.649,5.905,5.905,0,0,0-4.641-1.971,5.749,5.749,0,0,0-4.554,2.015,8.259,8.259,0,0,0-1.752,5.6,8.717,8.717,0,0,0,1.752,5.824,5.693,5.693,0,0,0,4.554,2.058A5.843,5.843,0,0,0,2432.253,1514.692Z" fill="#f5d800"/>
      <path id="パス_79" data-name="パス 79" d="M2484.757,1541.053a13.489,13.489,0,0,1-5.167-5.473,16.371,16.371,0,0,1-1.8-7.663,14.006,14.006,0,0,1,6.569-12.349q6.568-4.378,21.106-5.955a6.922,6.922,0,0,0-2.058-4.773q-1.8-1.618-5.473-1.62a18.016,18.016,0,0,0-6,1.095,47.04,47.04,0,0,0-7.051,3.284l-5.429-10.247q10.946-6.569,21.457-6.568,9.805,0,14.975,5.649t5.168,17.121v28.288h-12.7l-1.051-4.992h-.438q-6.92,6.219-14.275,6.218A14.988,14.988,0,0,1,2484.757,1541.053Zm17.122-11.034a14.42,14.42,0,0,0,3.59-2.978v-7.97q-12.873,1.666-12.873,7.62a3.807,3.807,0,0,0,1.4,3.2,6.252,6.252,0,0,0,3.941,1.1A8.037,8.037,0,0,0,2501.879,1530.019Z" fill="#f5d800"/>
      <path id="パス_80" data-name="パス 80" d="M2559.855,1539.959a22.235,22.235,0,0,1-8.846-9.064,28.887,28.887,0,0,1-3.24-14.013A26.2,26.2,0,0,1,2551.36,1503a24.321,24.321,0,0,1,9.546-9.065,27.464,27.464,0,0,1,13.049-3.152,21.618,21.618,0,0,1,14.538,5.342l-7.269,9.9a10,10,0,0,0-14.494,1.007q-3.021,3.636-3.022,9.853,0,6.131,2.978,9.853a9.329,9.329,0,0,0,7.619,3.722q4.29,0,8.671-3.5l6.043,10.246a21.2,21.2,0,0,1-7.795,4.467,28.371,28.371,0,0,1-8.67,1.4A25.739,25.739,0,0,1,2559.855,1539.959Z" fill="#f5d800"/>
      <path id="パス_81" data-name="パス 81" d="M2603.8,1539.915a23.4,23.4,0,0,1-8.976-9.108,30.339,30.339,0,0,1,0-27.806,23.487,23.487,0,0,1,8.976-9.065,24.581,24.581,0,0,1,24.085,0,23.516,23.516,0,0,1,8.977,9.065,30.357,30.357,0,0,1,0,27.806,23.424,23.424,0,0,1-8.977,9.108,24.574,24.574,0,0,1-24.085,0Zm18.392-13.049q2.1-3.591,2.1-9.984t-2.1-9.94a6.866,6.866,0,0,0-6.306-3.548,6.938,6.938,0,0,0-6.393,3.548q-2.1,3.546-2.1,9.94,0,6.483,2.1,10.028a6.937,6.937,0,0,0,6.393,3.547A6.847,6.847,0,0,0,2622.193,1526.866Z" fill="#f5d800"/>
      <path id="パス_82" data-name="パス 82" d="M2651.409,1538.514q-3.285-4.553-3.284-12.874v-53.774h15.589v54.3a5.375,5.375,0,0,0,.787,3.284,2.371,2.371,0,0,0,1.927,1.008,8.821,8.821,0,0,0,1.752-.176l1.839,11.474a20.054,20.054,0,0,1-7.707,1.313Q2654.692,1543.068,2651.409,1538.514Z" fill="#f5d800"/>
      <path id="パス_83" data-name="パス 83" d="M2678.846,1538.514q-3.285-4.553-3.284-12.874v-53.774h15.589v54.3a5.367,5.367,0,0,0,.788,3.284,2.369,2.369,0,0,0,1.927,1.008,8.843,8.843,0,0,0,1.752-.176l1.838,11.474a20.049,20.049,0,0,1-7.706,1.313Q2682.13,1543.068,2678.846,1538.514Z" fill="#f5d800"/>
      <path id="パス_84" data-name="パス 84" d="M2708.061,1541.053a13.493,13.493,0,0,1-5.168-5.473,16.382,16.382,0,0,1-1.8-7.663,14.007,14.007,0,0,1,6.569-12.349q6.567-4.378,21.106-5.955a6.927,6.927,0,0,0-2.058-4.773q-1.8-1.618-5.474-1.62a18.021,18.021,0,0,0-6,1.095,47.045,47.045,0,0,0-7.05,3.284l-5.43-10.247q10.947-6.569,21.457-6.568,9.807,0,14.976,5.649t5.168,17.121v28.288h-12.7l-1.052-4.992h-.437q-6.921,6.219-14.276,6.218A14.985,14.985,0,0,1,2708.061,1541.053Zm17.121-11.034a14.414,14.414,0,0,0,3.591-2.978v-7.97q-12.875,1.666-12.874,7.62a3.807,3.807,0,0,0,1.4,3.2,6.255,6.255,0,0,0,3.941,1.1A8.035,8.035,0,0,0,2725.182,1530.019Z" fill="#f5d800"/>
      <path id="パス_85" data-name="パス 85" d="M2774.69,1541.4a21.149,21.149,0,0,1-6.174-4.9h-.438l-1.226,5.342h-12.173v-69.976h15.589v16.815l-.438,7.445a21.551,21.551,0,0,1,6.13-3.942,17.254,17.254,0,0,1,6.744-1.4,17.459,17.459,0,0,1,10.291,3.108,19.926,19.926,0,0,1,6.831,8.846,34.064,34.064,0,0,1,2.408,13.268,33.159,33.159,0,0,1-2.934,14.451,22.839,22.839,0,0,1-7.751,9.371,18.049,18.049,0,0,1-10.247,3.24A14.509,14.509,0,0,1,2774.69,1541.4Zm9.152-14.538q2.365-3.415,2.365-10.509,0-6.569-1.97-9.722a6.676,6.676,0,0,0-6.087-3.152,8.263,8.263,0,0,0-4.029,1.006,15.7,15.7,0,0,0-3.853,3.2v19.7a10.541,10.541,0,0,0,7.356,2.89A7.241,7.241,0,0,0,2783.842,1526.866Z" fill="#f5d800"/>
      <path id="パス_86" data-name="パス 86" d="M2820.344,1539.915a23.4,23.4,0,0,1-8.977-9.108,30.349,30.349,0,0,1,0-27.806,23.5,23.5,0,0,1,8.977-9.065,24.579,24.579,0,0,1,24.084,0,23.509,23.509,0,0,1,8.977,9.065,30.347,30.347,0,0,1,0,27.806,23.417,23.417,0,0,1-8.977,9.108,24.572,24.572,0,0,1-24.084,0Zm18.392-13.049q2.1-3.591,2.1-9.984t-2.1-9.94a6.866,6.866,0,0,0-6.306-3.548,6.937,6.937,0,0,0-6.393,3.548q-2.1,3.546-2.1,9.94,0,6.483,2.1,10.028a6.936,6.936,0,0,0,6.393,3.547A6.847,6.847,0,0,0,2838.736,1526.866Z" fill="#f5d800"/>
      <path id="パス_87" data-name="パス 87" d="M2864.834,1492.009h12.7l1.139,8.671h.262a20.271,20.271,0,0,1,6.437-7.357,13.839,13.839,0,0,1,7.751-2.539,14.942,14.942,0,0,1,6.043,1.051l-2.54,13.4a24.829,24.829,0,0,0-5.517-.788,9.952,9.952,0,0,0-6,2.189,14.734,14.734,0,0,0-4.685,6.744v28.463h-15.589Z" fill="#f5d800"/>
      <path id="パス_88" data-name="パス 88" d="M2908.894,1541.053a13.49,13.49,0,0,1-5.167-5.473,16.371,16.371,0,0,1-1.8-7.663,14.007,14.007,0,0,1,6.569-12.349q6.568-4.378,21.106-5.955a6.927,6.927,0,0,0-2.058-4.773q-1.8-1.618-5.473-1.62a18.026,18.026,0,0,0-6,1.095,47.045,47.045,0,0,0-7.05,3.284l-5.429-10.247q10.946-6.569,21.456-6.568,9.807,0,14.976,5.649t5.167,17.121v28.288h-12.7l-1.05-4.992h-.438q-6.921,6.219-14.276,6.218A14.987,14.987,0,0,1,2908.894,1541.053Zm17.122-11.034a14.436,14.436,0,0,0,3.59-2.978v-7.97q-12.875,1.666-12.874,7.62a3.809,3.809,0,0,0,1.4,3.2,6.257,6.257,0,0,0,3.942,1.1A8.044,8.044,0,0,0,2926.016,1530.019Z" fill="#f5d800"/>
      <path id="パス_89" data-name="パス 89" d="M2961.431,1537.857q-4.291-5.21-4.291-14.494v-19.18H2950.4v-11.561l7.707-.613,1.751-13.224h12.874v13.224h11.736v12.174h-11.736v19.005q0,3.94,1.708,5.823a5.9,5.9,0,0,0,4.6,1.884,14.132,14.132,0,0,0,4.555-.963l2.452,11.3a47.025,47.025,0,0,1-5.387,1.357,32.508,32.508,0,0,1-5.911.482Q2965.721,1543.068,2961.431,1537.857Z" fill="#f5d800"/>
      <path id="パス_90" data-name="パス 90" d="M2994.124,1482.9a7.608,7.608,0,0,1-2.365-5.868,7.5,7.5,0,0,1,2.365-5.779,10.109,10.109,0,0,1,12.567,0,7.439,7.439,0,0,1,2.408,5.779,7.542,7.542,0,0,1-2.408,5.868,10.109,10.109,0,0,1-12.567,0Zm-1.489,58.941v-49.833h15.589v49.833Z" fill="#f5d800"/>
      <path id="パス_91" data-name="パス 91" d="M3028.384,1539.915a23.411,23.411,0,0,1-8.977-9.108,30.355,30.355,0,0,1,0-27.806,23.5,23.5,0,0,1,8.977-9.065,24.579,24.579,0,0,1,24.084,0,23.509,23.509,0,0,1,8.977,9.065,30.349,30.349,0,0,1,0,27.806,23.417,23.417,0,0,1-8.977,9.108,24.572,24.572,0,0,1-24.084,0Zm18.392-13.049q2.1-3.591,2.1-9.984t-2.1-9.94a6.865,6.865,0,0,0-6.3-3.548,6.939,6.939,0,0,0-6.394,3.548q-2.1,3.546-2.1,9.94,0,6.483,2.1,10.028a6.938,6.938,0,0,0,6.394,3.547A6.846,6.846,0,0,0,3046.776,1526.866Z" fill="#f5d800"/>
      <path id="パス_92" data-name="パス 92" d="M3072.874,1492.009h12.7l1.138,6.219h.263a31.02,31.02,0,0,1,7.4-5.43,18.315,18.315,0,0,1,8.539-2.014q7.882,0,11.692,5.3t3.81,14.932v30.828h-15.589v-28.9q0-4.992-1.358-6.919a5.035,5.035,0,0,0-4.423-1.926,8.5,8.5,0,0,0-4.29,1.05,23,23,0,0,0-4.292,3.416v33.28h-15.589Z" fill="#f5d800"/>
      <path id="パス_93" data-name="パス 93" d="M3152.834,1541.142a31.174,31.174,0,0,1-9.109-5.08l6.919-9.722q7.006,5.256,12.611,5.255,5.867,0,5.868-3.941a3.427,3.427,0,0,0-1.927-2.934,35.343,35.343,0,0,0-6.042-2.671l-1.927-.788a27.6,27.6,0,0,1-9.109-5.649,12.01,12.01,0,0,1-3.59-9.064,14.434,14.434,0,0,1,2.408-8.233,15.735,15.735,0,0,1,6.744-5.561,24.229,24.229,0,0,1,10.115-1.97,28.664,28.664,0,0,1,17.778,6.393l-6.918,9.283q-5.958-4.2-10.335-4.2-5.255,0-5.255,3.591a3.247,3.247,0,0,0,1.84,2.847,23.975,23.975,0,0,0,4.335,1.97q2.5.876,3.285,1.139a29.3,29.3,0,0,1,9.545,5.6q3.591,3.33,3.592,9.371a15.065,15.065,0,0,1-2.409,8.364,15.934,15.934,0,0,1-7.094,5.824,27.373,27.373,0,0,1-11.254,2.1A29.257,29.257,0,0,1,3152.834,1541.142Z" fill="#f5d800"/>
      <path id="パス_94" data-name="パス 94" d="M3196.009,1541.053a13.486,13.486,0,0,1-5.168-5.473,16.382,16.382,0,0,1-1.8-7.663,14.007,14.007,0,0,1,6.569-12.349q6.568-4.378,21.106-5.955a6.927,6.927,0,0,0-2.058-4.773q-1.8-1.618-5.474-1.62a18.025,18.025,0,0,0-6,1.095,47.045,47.045,0,0,0-7.05,3.284l-5.43-10.247q10.947-6.569,21.457-6.568,9.807,0,14.976,5.649t5.167,17.121v28.288h-12.7l-1.05-4.992h-.438q-6.921,6.219-14.276,6.218A14.985,14.985,0,0,1,3196.009,1541.053Zm17.122-11.034a14.432,14.432,0,0,0,3.59-2.978v-7.97q-12.875,1.666-12.874,7.62a3.809,3.809,0,0,0,1.4,3.2,6.255,6.255,0,0,0,3.941,1.1A8.045,8.045,0,0,0,3213.131,1530.019Z" fill="#f5d800"/>
      <path id="パス_95" data-name="パス 95" d="M3245.639,1538.514q-3.283-4.553-3.284-12.874v-53.774h15.589v54.3a5.368,5.368,0,0,0,.788,3.284,2.369,2.369,0,0,0,1.926,1.008,8.821,8.821,0,0,0,1.752-.176l1.84,11.474a20.061,20.061,0,0,1-7.707,1.313Q3248.923,1543.068,3245.639,1538.514Z" fill="#f5d800"/>
      <path id="パス_96" data-name="パス 96" d="M3279.356,1539.959a22.564,22.564,0,0,1-9.065-9.064,28.262,28.262,0,0,1-3.328-14.013,27.462,27.462,0,0,1,3.328-13.706,24.252,24.252,0,0,1,8.758-9.152,22.2,22.2,0,0,1,11.561-3.24,21.153,21.153,0,0,1,11.779,3.108,19.274,19.274,0,0,1,7.182,8.539,30.2,30.2,0,0,1,2.408,12.349,25.577,25.577,0,0,1-.7,6.743h-29.251a11.567,11.567,0,0,0,4.291,7.269,13.451,13.451,0,0,0,8.146,2.365,20.6,20.6,0,0,0,10.509-3.152l5.167,9.371a29.5,29.5,0,0,1-8.539,4.2,30.96,30.96,0,0,1-9.24,1.489A26.853,26.853,0,0,1,3279.356,1539.959Zm19.4-28.682a9.505,9.505,0,0,0-1.926-6.262q-1.927-2.319-5.956-2.321a8.52,8.52,0,0,0-5.868,2.189,10.972,10.972,0,0,0-3.239,6.394Z" fill="#f5d800"/>
    </g>
    <g id="HIKARU" style="isolation: isolate">
      <g id="グループ_86" data-name="グループ 86" style="isolation: isolate">
        <path id="パス_97" data-name="パス 97" d="M2606.861,1423.519v-38.741h9.308v14.769h12.74v-14.769h9.256v38.741h-9.256v-15.913h-12.74v15.913Z" fill="#f5d800"/>
        <path id="パス_98" data-name="パス 98" d="M2651.4,1423.519v-38.741h9.308v38.741Z" fill="#f5d800"/>
        <path id="パス_99" data-name="パス 99" d="M2673.956,1423.519v-38.741h9.308v15.34h.156l10.972-15.34h10.192l-11.7,15.548,13.884,23.193h-10.14l-9.152-15.861-4.212,5.721v10.14Z" fill="#f5d800"/>
        <path id="パス_100" data-name="パス 100" d="M2713.735,1423.519l12.013-38.741h11.128l12.012,38.741h-9.777l-2.235-8.892h-11.44l-2.237,8.892Zm13.468-16.069h7.9l-.832-3.275q-.624-2.235-1.611-6.553l-1.456-5.876H2731q-2.03,8.736-2.965,12.429Z" fill="#f5d800"/>
        <path id="パス_101" data-name="パス 101" d="M2772.354,1384.778q6.865,0,11,2.834t4.133,9.387a12.751,12.751,0,0,1-1.767,6.916,11.284,11.284,0,0,1-4.889,4.264l8.632,15.34h-10.4l-7.124-13.624h-4.472v13.624h-9.308v-38.741Zm-.728,17.785a7.818,7.818,0,0,0,5.07-1.43,5.041,5.041,0,0,0,1.742-4.134,4.112,4.112,0,0,0-1.69-3.744,9.568,9.568,0,0,0-5.122-1.093h-4.16v10.4Z" fill="#f5d800"/>
        <path id="パス_102" data-name="パス 102" d="M2802.613,1419.618q-3.927-4.628-3.926-14.3v-20.54h9.256v21.529q0,5.357,1.586,7.643a5.507,5.507,0,0,0,4.862,2.288,5.622,5.622,0,0,0,4.914-2.313q1.638-2.313,1.638-7.618v-21.529h8.944v20.54q0,9.726-3.848,14.327t-11.648,4.6Q2806.538,1424.246,2802.613,1419.618Z" fill="#f5d800"/>
      </g>
    </g>
    <g id="グループ_87" data-name="グループ 87">
      <path id="パス_103" data-name="パス 103" d="M3021.248,1401.247h-4.017l-1.452,2.515h-54.231l-14.884-14.673a.96.96,0,0,0-.675-.276h-56.282a.964.964,0,0,0,0,1.927h55.886l14.189,13.985-14.189,13.985h-55.886a.963.963,0,1,0,0,1.926h56.281a.961.961,0,0,0,.676-.277l14.884-14.671h54.23l1.452,2.515h4.017l2.007-3.478Z" fill="#f5d800"/>
      <path id="パス_104" data-name="パス 104" d="M2547.042,1390.74a.964.964,0,0,0,0-1.927H2490.76a.961.961,0,0,0-.676.277l-14.883,14.672H2420.97l-1.452-2.515H2415.5l-2.006,3.482,2.006,3.478h4.018l1.452-2.516H2475.2l14.884,14.671a.956.956,0,0,0,.677.278h56.282a.963.963,0,0,0,0-1.926h-55.887l-14.189-13.985,14.189-13.989Z" fill="#f5d800"/>
    </g>
  </g>
</svg>
