<svg xmlns="http://www.w3.org/2000/svg" width="298.926" height="70.433" viewBox="0 0 298.926 70.433">
  <g id="hikaru_collaboration_logo_N_SP" transform="translate(0)">
    <g id="コラボセール開催" transform="translate(2.661 23.404)" style="isolation: isolate">
      <g id="グループ_97" data-name="グループ 97" style="isolation: isolate">
        <path id="パス_154" data-name="パス 154" d="M2418.923,1229.916v-7.7h22.158v-20.492h-22.158v-7.7h30.149v35.885Z" transform="translate(-2418.923 -1185.746)" fill="#f5d800"/>
        <path id="パス_155" data-name="パス 155" d="M2514.233,1211.147h-22.551v-7.3h31.767a30.939,30.939,0,0,1-1.813,11.128,19.6,19.6,0,0,1-5.148,7.7,28.286,28.286,0,0,1-6.766,4.609,32.534,32.534,0,0,1-6.52,2.329q-3.088.71-5,.956t-2.01.245v-7.893a9.563,9.563,0,0,0,1.618-.147,31.073,31.073,0,0,0,3.971-.834,27.224,27.224,0,0,0,5-1.912,15.381,15.381,0,0,0,4.584-3.432A12.764,12.764,0,0,0,2514.233,1211.147Zm-21.178-11.912v-7.3h28.238v7.3Z" transform="translate(-2456.013 -1184.675)" fill="#f5d800"/>
        <path id="パス_156" data-name="パス 156" d="M2597.913,1187.915v7.844h-12.7v27.65h-7.305v-27.65h-12.55v-7.844h12.55v-5.589h7.305v5.589Zm-29.757,10.834h6.521q-.05,8.286-.49,12.746t-1.373,9.854h-7.059q.049-.1.564-2.648t1.152-7.623A106.887,106.887,0,0,0,2568.156,1198.749Zm20.051-13.874v-7.746h3.726v7.746Zm.392,13.874h6.569a119.163,119.163,0,0,0,.539,12.329,64.191,64.191,0,0,0,1.152,7.623q.612,2.549.661,2.648h-7.06q-.931-5.392-1.372-9.854T2588.6,1198.749Zm5.442-13.874v-7.746h3.725v7.746Z" transform="translate(-2493.573 -1177.13)" fill="#f5d800"/>
        <path id="パス_157" data-name="パス 157" d="M2645.838,1202.892l-5.687.147v-7.549l5.736-.2v-6.863h7.354v6.618l20.393-.686v7.6h-.049a17.768,17.768,0,0,1-4.069,7.672,29.311,29.311,0,0,1-5.613,4.829,27.163,27.163,0,0,1-4.706,2.5q-1.937.735-2.034.735v-7.745a4.487,4.487,0,0,0,1.127-.392,18.811,18.811,0,0,0,2.6-1.373,11.568,11.568,0,0,0,2.771-2.4,11.722,11.722,0,0,0,2.034-3.628l-12.452.49q-.148,4.559-.123,7.966t.123,6.055a9.623,9.623,0,0,0,.49,2.255,2.755,2.755,0,0,0,1.3,1.471,8.368,8.368,0,0,0,3.456.637q2.4.05,4.9-.025t4.657-.22q2.157-.147,3.481-.294t1.372-.147v7.892q-.048,0-2.23.123t-5.466.2q-3.286.073-7.5-.025-5.343-.146-8.284-2.329t-3.333-7.917q-.1-3.872-.172-7.378T2645.838,1202.892Z" transform="translate(-2531.697 -1182.89)" fill="#f5d800"/>
        <path id="パス_158" data-name="パス 158" d="M2716.49,1229.327v-7.7h22.648v7.7Z" transform="translate(-2570.613 -1199.815)" fill="#f5d800"/>
        <path id="パス_159" data-name="パス 159" d="M2775.935,1229.075H2767.7a65.981,65.981,0,0,0,2.745-6.668,53.772,53.772,0,0,0,1.888-7.427,50.808,50.808,0,0,0,.808-9.388v-13.923h7.4v13.923a64.55,64.55,0,0,1-1.2,13.04,48.7,48.7,0,0,1-2.231,7.869A17.232,17.232,0,0,1,2775.935,1229.075Zm25.738-17.11v9.511a24.032,24.032,0,0,1-5.491,4.853,25.183,25.183,0,0,1-5.393,2.6,24.023,24.023,0,0,1-4.29,1.054,11.8,11.8,0,0,1-1.789.172V1191.13h7.452v28.385a18.842,18.842,0,0,0,3.186-1.691,19.883,19.883,0,0,0,3.088-2.5Q2799.909,1213.878,2801.673,1211.965Z" transform="translate(-2596.717 -1184.267)" fill="#f5d800"/>
      </g>
      <g id="グループ_98" data-name="グループ 98" transform="translate(209.904 5.202)" style="isolation: isolate">
        <path id="パス_160" data-name="パス 160" d="M2864.742,1206.769H2853.36v24.178h-6.266v-40.326h17.648Zm-6-11.693h-5.383v1.5h5.383Zm-5.383,7.192h5.383v-1.633h-5.383Zm19.457,19.149v8.736h-5.6v-8.736h-3.089a18,18,0,0,1-1.786,5.317,11.723,11.723,0,0,1-3.729,4.3,15.749,15.749,0,0,0-1.875-1.919,17.56,17.56,0,0,0-2.184-1.7,8.208,8.208,0,0,0,2.647-2.625,10.7,10.7,0,0,0,1.411-3.375h-3.794v-5.162h4.06v-2.515h-3.486v-4.986h21.089v4.986h-3.662v2.515h4.28v5.162Zm-8.515-5.162h2.912v-2.515H2864.3Zm20.693,7.5a11.361,11.361,0,0,1-.486,3.729,3.912,3.912,0,0,1-1.764,2.1,8.146,8.146,0,0,1-3.022.993,30.653,30.653,0,0,1-4.523.2,18.5,18.5,0,0,0-.683-3.221,17.446,17.446,0,0,0-1.169-3.088q1.675.089,4.456.088a.739.739,0,0,0,.882-.882V1206.9h-11.647v-16.281h17.957Zm-6.31-28.679h-5.559v1.5h5.559Zm-5.559,7.325h5.559v-1.765h-5.559Z" transform="translate(-2847.094 -1189.209)" fill="#f5d800"/>
        <path id="パス_161" data-name="パス 161" d="M2973.414,1227.979h-19.237v1.412h-6.133V1212.36q-.884.972-1.765,1.765a44.15,44.15,0,0,0-3.971-3.839v19.149h-6.089v-21.443q-.662.839-2.162,2.515a30.761,30.761,0,0,0-1.522-3.441,34.86,34.86,0,0,0-1.831-3.309,36.456,36.456,0,0,0,5.427-7.17,48.784,48.784,0,0,0,4.147-8.846l6.044,1.9a77.375,77.375,0,0,1-4.015,8.868v10.457a25.37,25.37,0,0,0,4.037-4.456,29.607,29.607,0,0,0,3.11-5.427h-2.824v-10.148h5.824v4.809h3.662v-5.913h6.353v5.913h4.016v-4.809h6.133v10.148h-10.942l5.03,1.1-1.368,2.6h7.456v4.9h-8.25v2.03h7.147v4.544h-7.147v2.118h7.147v4.544h-7.147v2.162h8.868Zm-17.6-27.8q-.441,1.1-1.191,2.6h4.456q.662-2.205.971-3.706h-8.031Zm2.647,9.53v-2.03h-4.28v2.03Zm0,6.662v-2.118h-4.28v2.118Zm-4.28,4.544v2.162h4.28v-2.162Z" transform="translate(-2889.716 -1187.741)" fill="#f5d800"/>
      </g>
    </g>
    <g id="HIKARU" transform="translate(93.299)" style="isolation: isolate">
      <g id="グループ_99" data-name="グループ 99" style="isolation: isolate">
        <path id="パス_162" data-name="パス 162" d="M2603.809,1148.382V1129.39h4.563v7.24h6.246v-7.24h4.538v18.992h-4.538v-7.8h-6.246v7.8Z" transform="translate(-2603.809 -1129.39)" fill="#f5d800"/>
        <path id="パス_163" data-name="パス 163" d="M2648.352,1148.382V1129.39h4.563v18.992Z" transform="translate(-2626.516 -1129.39)" fill="#f5d800"/>
        <path id="パス_164" data-name="パス 164" d="M2670.9,1148.382V1129.39h4.563v7.52h.076l5.379-7.52h5l-5.736,7.622,6.806,11.37h-4.971l-4.487-7.775-2.065,2.8v4.971Z" transform="translate(-2638.012 -1129.39)" fill="#f5d800"/>
        <path id="パス_165" data-name="パス 165" d="M2710.683,1148.382l5.889-18.992h5.455l5.889,18.992h-4.792l-1.1-4.359h-5.608l-1.1,4.359Zm6.6-7.877h3.875l-.408-1.606q-.306-1.1-.79-3.212l-.714-2.88h-.1q-.994,4.282-1.453,6.093Z" transform="translate(-2658.29 -1129.39)" fill="#f5d800"/>
        <path id="パス_166" data-name="パス 166" d="M2762.065,1129.39a9.377,9.377,0,0,1,5.392,1.389q2.026,1.39,2.026,4.6a6.246,6.246,0,0,1-.867,3.391,5.528,5.528,0,0,1-2.4,2.09l4.231,7.52h-5.1l-3.492-6.679h-2.193v6.679h-4.563V1129.39Zm-.357,8.718a3.833,3.833,0,0,0,2.486-.7,2.472,2.472,0,0,0,.854-2.027,2.017,2.017,0,0,0-.828-1.835,4.692,4.692,0,0,0-2.511-.536h-2.039v5.1Z" transform="translate(-2680.935 -1129.39)" fill="#f5d800"/>
        <path id="パス_167" data-name="パス 167" d="M2797.56,1146.47q-1.925-2.269-1.925-7.01V1129.39h4.538v10.554a6.8,6.8,0,0,0,.777,3.747,2.7,2.7,0,0,0,2.383,1.122,2.755,2.755,0,0,0,2.409-1.134,6.631,6.631,0,0,0,.8-3.735V1129.39h4.384v10.069q0,4.768-1.886,7.023t-5.711,2.256A7.148,7.148,0,0,1,2797.56,1146.47Z" transform="translate(-2701.595 -1129.39)" fill="#f5d800"/>
      </g>
    </g>
    <g id="グループ_100" data-name="グループ 100" transform="translate(0 1.979)">
      <path id="パス_168" data-name="パス 168" d="M2953.7,1139.521h-1.969l-.712,1.233h-26.586l-7.3-7.193a.47.47,0,0,0-.331-.135h-27.591a.472.472,0,1,0,0,.944h27.4l6.956,6.856-6.956,6.855h-27.4a.472.472,0,1,0,0,.944h27.593a.468.468,0,0,0,.329-.135l7.3-7.192h26.586l.712,1.232h1.969l.984-1.7Z" transform="translate(-2655.76 -1133.426)" fill="#f5d800"/>
      <path id="パス_169" data-name="パス 169" d="M2478.964,1134.37a.472.472,0,0,0,0-.944h-27.592a.47.47,0,0,0-.331.135l-7.3,7.192h-26.586l-.712-1.233h-1.97l-.983,1.708.983,1.7h1.97l.712-1.232h26.585l7.3,7.191a.474.474,0,0,0,.332.137h27.592a.472.472,0,0,0,0-.945h-27.4l-6.956-6.855,6.956-6.858Z" transform="translate(-2413.494 -1133.426)" fill="#f5d800"/>
    </g>
  </g>
</svg>
