<svg xmlns="http://www.w3.org/2000/svg" width="134.512" height="31.823" viewBox="0 0 134.512 31.823">
  <path id="パス_52" data-name="パス 52" d="M-682.425-265.282h3.439l1.452,2.515h54.567a.46.46,0,0,1,.135.022l15.052-14.837a.463.463,0,0,1,.325-.133h56.282a.463.463,0,0,1,.463.463.463.463,0,0,1-.463.463h-56.092L-621.96-262.3l14.695,14.485h56.092a.463.463,0,0,1,.463.463.463.463,0,0,1-.463.463h-56.282a.462.462,0,0,1-.325-.133l-15.052-14.837a.455.455,0,0,1-.135.022h-54.567l-1.452,2.515h-3.439l-1.719-2.978Z" transform="translate(684.721 278.215)" fill="#fff" stroke="#fff" stroke-width="1"/>
</svg>
