<?xml version="1.0" encoding="UTF-8"?><svg id="_字" xmlns="http://www.w3.org/2000/svg" viewBox="0 0 288.67 381.04"><defs><style>.cls-1{fill:#fff;}</style></defs><path class="cls-1" d="M286.98,198.96c-7.93-62.31-26.22-72.6-37.66-97.18-11.43-24.58-17.43-81.89-17.43-90.32s-.29-10-2.86-11.15c-2.57-1.14-5.27,.77-11.84,6.24-6.57,5.47-26.23,28.67-36.11,42.32-6.32,8.73-11.57,18.03-17.39,27.08-6.91,10.74-15.92,16.83-28.66,18.49-38.34,4.98-54.88-35.68-54.19-67.76,.07-3.31,.52-6.45-1.63-7.27-2.15-.82-4.19,1.26-5.63,3.56-5.61,8.95-14.43,22.75-17.79,29.21-3.37,6.46-16.17,28.91-24.17,56.64-8,27.72-17.43,30.9-24.49,55.14C.08,188.22-.68,209.7,.4,224.38c3.79,51.78,20.63,60.67,30.01,99.75,4.94,20.57,20.44,57.36,104.71,56.9,29.65-.16,60.1-8.33,86.48-22.65,53.51-29.06,73.31-97.11,65.38-159.42Zm-239.2,30.23c1.77,.76,1.51,1.11,3.19,3.59,4.56,6.48,26.83,28.63,67.07,26.82,40.24-1.8,60.85-26.42,64.51-32.79,2.77-4.83,2.99-7.18,4.33-8.23,1.33-1.05,2.95-2.02,9.91,.84s39.09,22.92,46.04,48.83c6.95,25.91,6.94,52.47-18.93,76.77-19.18,18.01-57.16,27.87-93.75,28.3-49.45,.57-86.01-17.43-95.01-54.95-6.87-28.62-14.33-24.77-10.03-60,3.59-17.97,14.07-25.6,15.72-26.8,1.65-1.2,5.58-2.96,6.96-2.37Zm54.89,107.85c-6.39,6.2-19.17,12.94-37.12,2.4-18.21-10.69-26.09-26.42-28.66-45.54-.48-3.56,2.59-6.62,6.15-6.11,35.86,5.14,56.24,31.7,60.86,43.45,.79,2,.31,4.29-1.23,5.79Zm109.96-6.98c-26.5,21.51-52.74,14.37-67.82,4.86-2.17-1.37-3.08-4.06-2.19-6.48,4.69-12.79,23.74-51.87,84.04-63.09,2.55-.47,5.12,.9,6.05,3.33,6.95,18.2,6.59,39.74-20.08,61.38Z"/></svg>