<svg id="Beginner_mark" xmlns="http://www.w3.org/2000/svg" width="40.495" height="62.849" viewBox="0 0 40.495 62.849">
  <g id="グループ_6" data-name="グループ 6" transform="translate(0 0)">
    <path id="パス_5" data-name="パス 5" d="M430.877,656.727a3.681,3.681,0,0,1-2.345-.845L412.7,642.76a5.707,5.707,0,0,1-2.071-4.407V599.609a5.643,5.643,0,0,1,1.776-4.151,5.844,5.844,0,0,1,3.969-1.58,5.634,5.634,0,0,1,3.631,1.325l10.6,8.785a.428.428,0,0,0,.546,0l10.6-8.784a5.634,5.634,0,0,1,3.631-1.325,5.845,5.845,0,0,1,3.968,1.58,5.643,5.643,0,0,1,1.776,4.151v38.744a5.707,5.707,0,0,1-2.071,4.407l-15.832,13.122A3.68,3.68,0,0,1,430.877,656.727Z" transform="translate(-410.63 -593.878)" fill="#fff"/>
  </g>
  <g id="グループ_7" data-name="グループ 7" transform="translate(20.247 1.623)">
    <path id="パス_6" data-name="パス 6" d="M581.026,610.154V648.9a4.1,4.1,0,0,1-1.484,3.157L563.71,665.177a2.045,2.045,0,0,1-1.308.472V616.254a2.048,2.048,0,0,0,1.308-.472l10.6-8.785A4.1,4.1,0,0,1,581.026,610.154Z" transform="translate(-562.402 -606.046)" fill="#82b356"/>
  </g>
  <g id="グループ_8" data-name="グループ 8" transform="translate(1.623 1.623)">
    <path id="パス_7" data-name="パス 7" d="M441.422,616.254v49.395a2.046,2.046,0,0,1-1.308-.472l-15.832-13.122A4.1,4.1,0,0,1,422.8,648.9V610.154A4.1,4.1,0,0,1,429.515,607l10.6,8.785A2.048,2.048,0,0,0,441.422,616.254Z" transform="translate(-422.798 -606.046)" fill="#fbab00"/>
  </g>
</svg>
