<svg xmlns="http://www.w3.org/2000/svg" xmlns:xlink="http://www.w3.org/1999/xlink" width="55" height="55" viewBox="0 0 55 55">
  <defs>
    <filter id="長方形_13" x="0" y="0" width="55" height="55" filterUnits="userSpaceOnUse">
      <feOffset dy="2" input="SourceAlpha"/>
      <feGaussianBlur stdDeviation="3" result="blur"/>
      <feFlood flood-opacity="0.396"/>
      <feComposite operator="in" in2="blur"/>
      <feComposite in="SourceGraphic"/>
    </filter>
  </defs>
  <g id="詳細" transform="translate(-1416 683)">
    <g transform="matrix(1, 0, 0, 1, 1416, -683)" filter="url(#長方形_13)">
      <rect id="長方形_13-2" data-name="長方形 13" width="37" height="37" rx="18.5" transform="translate(9 7)" fill="#38a4ff"/>
    </g>
    <path id="Icon_awesome-question-circle" data-name="Icon awesome-question-circle" d="M35.438,18A17.438,17.438,0,1,1,18,.563,17.437,17.437,0,0,1,35.438,18ZM18.468,6.328a9.107,9.107,0,0,0-8.195,4.483.845.845,0,0,0,.191,1.143L12.9,13.8a.843.843,0,0,0,1.172-.149c1.256-1.593,2.117-2.517,4.029-2.517,1.436,0,3.213.924,3.213,2.317,0,1.053-.869,1.594-2.288,2.389-1.654.927-3.843,2.081-3.843,4.968v.281a.844.844,0,0,0,.844.844h3.938a.844.844,0,0,0,.844-.844V21c0-2,5.849-2.085,5.849-7.5C26.662,9.422,22.431,6.328,18.468,6.328ZM18,23.766A3.234,3.234,0,1,0,21.234,27,3.238,3.238,0,0,0,18,23.766Z" transform="translate(1425.438 -675.563)" fill="#131f38"/>
  </g>
</svg>
