<svg xmlns="http://www.w3.org/2000/svg" width="57.062" height="57.062" viewBox="0 0 57.062 57.062">
  <defs>
    <style>
      .cls-1 {
        fill: #fff;
        fill-rule: evenodd;
      }
    </style>
  </defs>
  <path id="t" class="cls-1" d="M660.841,44.275c1.22,0.21,2.347.442,3.36,0.7a28.8,28.8,0,0,0-10.154-10.155c0.255,1.015.487,2.141,0.7,3.362-1.881-.211-3.852-0.38-5.878-0.508a36.308,36.308,0,0,0-1.025-5.583,28.52,28.52,0,0,0-5.681-1.108,60.937,60.937,0,0,1,.5,6.437c-2.1-.044-4.214-0.044-6.312,0a61.217,61.217,0,0,1,.5-6.437,28.534,28.534,0,0,0-5.681,1.108,36.341,36.341,0,0,0-1.025,5.583c-2.026.128-4,.3-5.878,0.508,0.21-1.221.442-2.347,0.7-3.361a28.8,28.8,0,0,0-10.154,10.155c1.014-.255,2.14-0.487,3.361-0.7-0.212,1.88-.381,3.852-0.508,5.878a36.188,36.188,0,0,0-5.582,1.024,28.529,28.529,0,0,0-1.109,5.682,60.674,60.674,0,0,1,6.437-.5c-0.042,2.1-.042,4.216,0,6.313a61.985,61.985,0,0,1-6.437-.5,28.49,28.49,0,0,0,1.109,5.679,36.2,36.2,0,0,0,5.582,1.026c0.127,2.025.3,4,.508,5.878-1.221-.21-2.347-0.442-3.36-0.7a28.787,28.787,0,0,0,10.153,10.154c-0.255-1.014-.487-2.14-0.7-3.359,1.881,0.21,3.852.379,5.878,0.506a36.219,36.219,0,0,0,1.025,5.582,28.55,28.55,0,0,0,5.681,1.109,61.3,61.3,0,0,1-.5-6.438c2.1,0.043,4.214.043,6.312,0a61.024,61.024,0,0,1-.5,6.438,28.536,28.536,0,0,0,5.681-1.109,36.219,36.219,0,0,0,1.025-5.582c2.026-.127,4-0.3,5.878-0.506-0.21,1.219-.442,2.345-0.7,3.359A28.8,28.8,0,0,0,664.2,74.053c-1.013.255-2.14,0.487-3.36,0.7,0.211-1.881.381-3.853,0.508-5.878a36.221,36.221,0,0,0,5.582-1.026,28.56,28.56,0,0,0,1.108-5.679,61.958,61.958,0,0,1-6.436.5c0.042-2.1.042-4.213,0-6.313a60.673,60.673,0,0,1,6.436.5,28.6,28.6,0,0,0-1.108-5.682,36.212,36.212,0,0,0-5.582-1.024C661.222,48.127,661.052,46.155,660.841,44.275Zm-38.024,11.9c1.974-.05,4.1-0.089,6.314-0.12-0.029,2.3-.029,4.621,0,6.918-2.216-.033-4.34-0.071-6.314-0.123C622.777,60.633,622.777,58.391,622.817,56.174Zm0.726,19.3c-0.2-1.927-.363-3.974-0.484-6.1,1.959,0.14,4.057.255,6.241,0.34,0.084,2.183.2,4.281,0.338,6.24C627.517,75.839,625.47,75.678,623.543,75.475ZM629.3,49.306c-2.184.086-4.282,0.2-6.241,0.34,0.121-2.121.282-4.169,0.484-6.1,1.927-.2,3.974-0.362,6.1-0.484C629.5,45.025,629.384,47.123,629.3,49.306Zm6.869-6.484c2.217-.038,4.458-0.038,6.675,0,0.05,1.974.091,4.1,0.121,6.316-2.3-.029-4.621-0.029-6.917,0C636.079,46.923,636.119,44.8,636.169,42.822Zm6.675,33.38c-2.217.039-4.458,0.039-6.675,0-0.05-1.975-.09-4.1-0.121-6.314,2.3,0.028,4.621.028,6.917,0C642.935,72.1,642.894,74.228,642.844,76.2Zm0.181-13.17c-2.336.009-4.7,0.009-7.037,0-0.01-2.338-.01-4.7,0-7.039,2.336-.01,4.7-0.01,7.037,0C643.035,58.33,643.035,60.695,643.025,63.032Zm12.444-19.483c0.2,1.928.363,3.975,0.484,6.1-1.959-.142-4.057-0.255-6.241-0.34-0.085-2.184-.2-4.281-0.339-6.241C651.494,43.187,653.542,43.347,655.469,43.549Zm0,31.926c-1.927.2-3.975,0.363-6.1,0.485,0.141-1.959.254-4.057,0.339-6.24,2.184-.085,4.282-0.2,6.241-0.34C655.832,71.5,655.671,73.548,655.469,75.475ZM656.2,62.85c-1.974.051-4.1,0.089-6.314,0.123,0.028-2.3.028-4.622,0-6.918,2.216,0.031,4.34.07,6.314,0.12C656.235,58.391,656.235,60.633,656.2,62.85Z" transform="translate(-610.969 -30.969)"/>
</svg>
