<svg xmlns="http://www.w3.org/2000/svg" width="22.5" height="29.531" viewBox="0 0 22.5 29.531">
  <path id="Icon_ionic-md-lock" data-name="Icon ionic-md-lock" d="M26.438,13.078H25.031V10.266a7.031,7.031,0,0,0-14.062,0v2.813H9.563A2.821,2.821,0,0,0,6.75,15.891V29.953a2.821,2.821,0,0,0,2.813,2.813H26.438a2.821,2.821,0,0,0,2.813-2.812V15.891A2.821,2.821,0,0,0,26.438,13.078ZM18,25.875a2.813,2.813,0,1,1,2.813-2.812A2.821,2.821,0,0,1,18,25.875Zm4.36-12.8H13.64V10.266a4.36,4.36,0,1,1,8.719,0Z" transform="translate(-6.75 -3.234)" fill="#fff"/>
</svg>
