<?xml version="1.0" encoding="UTF-8" standalone="no"?>
<svg
   id="_字"
   viewBox="0 0 400 400"
   version="1.1"
   sodipodi:docname="XENO_circle.svg"
   inkscape:version="1.2 (dc2aeda, 2022-05-15)"
   width="400"
   height="400"
   xmlns:inkscape="http://www.inkscape.org/namespaces/inkscape"
   xmlns:sodipodi="http://sodipodi.sourceforge.net/DTD/sodipodi-0.dtd"
   xmlns="http://www.w3.org/2000/svg"
   xmlns:svg="http://www.w3.org/2000/svg">
  <sodipodi:namedview
     id="namedview467"
     pagecolor="#505050"
     bordercolor="#eeeeee"
     borderopacity="1"
     inkscape:showpageshadow="0"
     inkscape:pageopacity="0"
     inkscape:pagecheckerboard="0"
     inkscape:deskcolor="#505050"
     showgrid="false"
     inkscape:zoom="0.71071494"
     inkscape:cx="58.391906"
     inkscape:cy="175.17572"
     inkscape:window-width="1652"
     inkscape:window-height="697"
     inkscape:window-x="0"
     inkscape:window-y="23"
     inkscape:window-maximized="0"
     inkscape:current-layer="_字" />
  <defs
     id="defs462">
    <style
       id="style460">.cls-1{fill:#754aff;}</style>
  </defs>
  <path
     style="fill:#000000;fill-opacity:1;stroke-width:0.853702"
     id="path1938"
     sodipodi:type="arc"
     sodipodi:cx="200"
     sodipodi:cy="-200"
     sodipodi:rx="197.05338"
     sodipodi:ry="197.05338"
     sodipodi:start="0"
     sodipodi:end="6.2827808"
     sodipodi:arc-type="slice"
     d="M 397.05338,-200 A 197.05338,197.05338 0 0 1 200.01993,-2.9466258 197.05338,197.05338 0 0 1 2.9466288,-199.96015 197.05338,197.05338 0 0 1 199.94022,-397.05337 197.05338,197.05338 0 0 1 397.05336,-200.07971 L 200,-200 Z"
     transform="scale(1,-1)" />
  <path
     class="cls-1"
     d="m 307.62278,206.36957 c -5.9824,-47.01073 -19.7826,-54.77659 -28.41422,-73.32115 -8.62297,-18.54456 -13.15089,-61.780576 -13.15089,-68.143906 0,-6.363331 -0.21644,-7.549421 -2.15574,-8.406523 -1.9393,-0.865759 -3.97383,0.580059 -8.92597,4.709731 -4.95215,4.129672 -19.7826,21.626666 -27.23679,31.929201 -4.77033,6.588428 -8.72685,13.601077 -13.12491,20.431917 -5.21187,8.1035 -12.00808,12.70069 -21.61801,13.94738 -28.92502,3.75739 -41.40927,-26.92511 -40.88981,-51.123081 0.052,-2.493386 0.39825,-4.865567 -1.22938,-5.480256 -1.62763,-0.614689 -3.16002,0.952335 -4.25088,2.683854 -4.23356,6.752922 -10.88259,17.159348 -13.42792,22.033573 -2.53668,4.87422 -12.19855,21.81713 -18.23289,42.73387 -6.03434,20.91675 -13.15088,23.3149 -18.475302,41.60839 -5.32442,18.28484 -5.895821,34.50051 -5.082007,45.57357 2.857006,39.06306 15.566349,45.77269 22.639599,75.26045 3.72277,15.52307 15.41918,43.27931 79.00054,42.933 22.37121,-0.1212 45.34847,-6.28541 65.24361,-17.09008 40.37036,-21.92969 55.31336,-73.26921 49.33097,-120.27994 z m -180.47618,22.8041 c 1.33327,0.5714 1.1428,0.83113 2.40681,2.70983 3.43707,4.89154 20.24145,21.60069 50.60363,20.24145 30.36218,-1.35924 45.91121,-19.93844 48.67299,-24.7434 2.09513,-3.64485 2.25963,-5.41965 3.26391,-6.20749 1.00428,-0.78785 2.225,-1.52374 7.4715,0.632 5.2465,2.15574 29.48776,17.28921 34.73426,36.84671 5.2465,19.54885 5.22919,39.59117 -14.28503,57.9193 -14.46683,13.59242 -43.12346,21.02929 -70.73253,21.34962 -37.30556,0.43288 -64.88865,-13.15088 -71.68486,-41.46121 -5.1859,-21.59204 -10.81333,-18.69174 -7.56674,-45.27055 2.70983,-13.55779 10.61421,-19.31509 11.8609,-20.21548 1.2467,-0.90039 4.20759,-2.23366 5.25516,-1.78346 z m 41.40927,81.36406 c -4.82228,4.6751 -14.45818,9.76576 -28.00732,1.81809 -13.7396,-8.06888 -19.6787,-19.92978 -21.62666,-34.35333 -0.36362,-2.68385 1.95661,-4.99543 4.64047,-4.60584 27.05497,3.87861 42.43086,23.92093 45.91987,32.78631 0.59737,1.50642 0.23375,3.23794 -0.92636,4.37208 z m 82.95705,-5.27248 c -19.99038,16.23299 -39.7903,10.83931 -51.16637,3.67082 -1.63629,-1.03025 -2.32024,-3.06479 -1.6536,-4.88288 3.54095,-9.65322 17.91255,-39.13232 63.39955,-47.59944 1.92198,-0.35497 3.86994,0.68395 4.56255,2.5107 5.2465,13.73094 4.97811,29.98124 -15.14213,46.30946 z"
     id="path464"
     style="fill:#ffffff;fill-opacity:1;stroke-width:0.865759" />
</svg>
