<?xml version="1.0" encoding="UTF-8" standalone="no"?>
<svg
   id="_字"
   viewBox="0 0 251.56 332.06"
   version="1.1"
   sodipodi:docname="XENO.svg"
   inkscape:version="1.2 (dc2aeda, 2022-05-15)"
   xmlns:inkscape="http://www.inkscape.org/namespaces/inkscape"
   xmlns:sodipodi="http://sodipodi.sourceforge.net/DTD/sodipodi-0.dtd"
   xmlns="http://www.w3.org/2000/svg"
   xmlns:svg="http://www.w3.org/2000/svg">
  <sodipodi:namedview
     id="namedview467"
     pagecolor="#505050"
     bordercolor="#eeeeee"
     borderopacity="1"
     inkscape:showpageshadow="0"
     inkscape:pageopacity="0"
     inkscape:pagecheckerboard="0"
     inkscape:deskcolor="#505050"
     showgrid="false"
     inkscape:zoom="0.71071494"
     inkscape:cx="58.391906"
     inkscape:cy="175.17572"
     inkscape:window-width="1652"
     inkscape:window-height="697"
     inkscape:window-x="0"
     inkscape:window-y="23"
     inkscape:window-maximized="0"
     inkscape:current-layer="_字" />
  <defs
     id="defs462">
    <style
       id="style460">.cls-1{fill:#754aff;}</style>
  </defs>
  <path
     class="cls-1"
     d="M250.09,173.39c-6.91-54.3-22.85-63.27-32.82-84.69-9.96-21.42-15.19-71.36-15.19-78.71s-.25-8.72-2.49-9.71c-2.24-1-4.59,.67-10.31,5.44-5.72,4.77-22.85,24.98-31.46,36.88-5.51,7.61-10.08,15.71-15.16,23.6-6.02,9.36-13.87,14.67-24.97,16.11-33.41,4.34-47.83-31.1-47.23-59.05,.06-2.88,.46-5.62-1.42-6.33s-3.65,1.1-4.91,3.1c-4.89,7.8-12.57,19.82-15.51,25.45-2.93,5.63-14.09,25.2-21.06,49.36-6.97,24.16-15.19,26.93-21.34,48.06C.07,164.02-.59,182.75,.35,195.54c3.3,45.12,17.98,52.87,26.15,86.93,4.3,17.93,17.81,49.99,91.25,49.59,25.84-.14,52.38-7.26,75.36-19.74,46.63-25.33,63.89-84.63,56.98-138.93Zm-208.46,26.34c1.54,.66,1.32,.96,2.78,3.13,3.97,5.65,23.38,24.95,58.45,23.38,35.07-1.57,53.03-23.03,56.22-28.58,2.42-4.21,2.61-6.26,3.77-7.17,1.16-.91,2.57-1.76,8.63,.73,6.06,2.49,34.06,19.97,40.12,42.56,6.06,22.58,6.04,45.73-16.5,66.9-16.71,15.7-49.81,24.29-81.7,24.66-43.09,.5-74.95-15.19-82.8-47.89-5.99-24.94-12.49-21.59-8.74-52.29,3.13-15.66,12.26-22.31,13.7-23.35s4.86-2.58,6.07-2.06Zm47.83,93.98c-5.57,5.4-16.7,11.28-32.35,2.1-15.87-9.32-22.73-23.02-24.98-39.68-.42-3.1,2.26-5.77,5.36-5.32,31.25,4.48,49.01,27.63,53.04,37.87,.69,1.74,.27,3.74-1.07,5.05Zm95.82-6.09c-23.09,18.75-45.96,12.52-59.1,4.24-1.89-1.19-2.68-3.54-1.91-5.64,4.09-11.15,20.69-45.2,73.23-54.98,2.22-.41,4.47,.79,5.27,2.9,6.06,15.86,5.75,34.63-17.49,53.49Z"
     id="path464"
     style="fill:#ffffff;fill-opacity:1" />
</svg>
