<svg xmlns="http://www.w3.org/2000/svg" width="1301.156" height="75.91" viewBox="0 0 1301.156 75.91">
  <path id="title_plate_5" d="M637.979,74.91h-451.6a1.124,1.124,0,0,1-.79-.324L149.007,38.526a1.1,1.1,0,0,1-.328.054H16.062l-3.528,6.112H4.177L0,37.455l4.179-7.238h8.357l3.528,6.112H148.678a1.131,1.131,0,0,1,.328.054L185.589.324a1.128,1.128,0,0,1,.79-.324h927.239a1.126,1.126,0,0,1,.79.324l36.582,36.059a1.142,1.142,0,0,1,.328-.054h132.616l3.529-6.112h8.357L1300,37.455l-4.178,7.237h-8.357l-3.529-6.112H1151.32a1.112,1.112,0,0,1-.328-.054l-36.582,36.059a1.122,1.122,0,0,1-.79.324Z" transform="translate(0.579 0.5)" fill="#db9e2a" stroke="#ffe245" stroke-width="1"/>
</svg>
