<svg xmlns="http://www.w3.org/2000/svg" width="643.765" height="157.237" viewBox="0 0 643.765 157.237">
  <g id="NFT_logo" transform="translate(-3930.725 -396.724)">
    <g id="グループ_133" data-name="グループ 133" transform="translate(3983.327 396.724)">
      <path id="パス_269" data-name="パス 269" d="M4028.764,477.148a191.816,191.816,0,0,0-1.637-21.074l-.715-7.058h.511l7.467,16.675,18.824,36.726h18.619V426.2h-17.392v25.269a206.973,206.973,0,0,0,1.945,23.733l.512,4.4h-.512l-7.469-16.88L4029.99,426.2h-18.617v76.214h17.391Z" transform="translate(-4011.373 -406.976)"/>
      <path id="パス_270" data-name="パス 270" d="M4138.166,473.363h25.985V458.121h-25.985V441.446h30.281V426.2h-48.594v76.214h18.313Z" transform="translate(-4049.099 -406.976)"/>
      <path id="パス_271" data-name="パス 271" d="M4229.662,502.417h18.313V441.446h20.666V426.2H4209.1v15.243h20.563Z" transform="translate(-4080.135 -406.976)"/>
      <path id="パス_272" data-name="パス 272" d="M4323.4,467.951q.139,6.672.326,14.047.746,10.918,6.347,15.071t15.772,4.435q8.023.184,14.277.045t10.407-.373q4.151-.234,4.245-.233V485.916q-.092,0-2.611.28t-6.627.559q-4.109.282-8.867.421t-9.331.048q-4.761-.187-6.58-1.214a5.258,5.258,0,0,1-2.475-2.8,18.4,18.4,0,0,1-.932-4.292q-.19-5.039-.234-11.528t.234-15.164l23.7-.934a21.658,21.658,0,0,1-9.146,11.48,35.97,35.97,0,0,1-4.948,2.614,8.558,8.558,0,0,1-2.145.747v14.745q.184,0,3.874-1.4a51.576,51.576,0,0,0,8.96-4.76,55.847,55.847,0,0,0,10.684-9.191,33.839,33.839,0,0,0,7.747-14.607h.095V436.453l-38.825,1.306v-12.6h-14v13.065l-10.919.373v14.374l10.826-.28Q4323.26,461.279,4323.4,467.951Z" transform="translate(-4116.071 -406.613)"/>
      <rect id="長方形_80" data-name="長方形 80" width="43.118" height="14.653" transform="translate(267.104 49.531)"/>
      <path id="パス_273" data-name="パス 273" d="M4543,502.984a45.725,45.725,0,0,0,8.168-2,48.1,48.1,0,0,0,10.266-4.947,45.74,45.74,0,0,0,10.453-9.24V468.687q-3.36,3.638-6.16,6.393a37.733,37.733,0,0,1-5.879,4.76,35.889,35.889,0,0,1-6.067,3.22V429.022H4539.6v74.29A22.442,22.442,0,0,0,4543,502.984Z" transform="translate(-4195.071 -407.956)"/>
      <path id="パス_274" data-name="パス 274" d="M4507.865,496.907a92.747,92.747,0,0,0,4.246-14.979A122.875,122.875,0,0,0,4514.4,457.1V430.6H4500.3V457.1a96.546,96.546,0,0,1-1.539,17.873,102.484,102.484,0,0,1-3.593,14.139,126.128,126.128,0,0,1-5.227,12.691h15.68A33.08,33.08,0,0,0,4507.865,496.907Z" transform="translate(-4177.804 -408.504)"/>
      <path id="パス_275" data-name="パス 275" d="M4662.722,473.718h-17.168V396.724h-16.782a59.312,59.312,0,0,1-10.567,5.253,77.792,77.792,0,0,1-13,3.46v14.09h17.55v54.19H4602.51v18.448h60.212Z" transform="translate(-4216.949 -396.724)"/>
      <path id="パス_276" data-name="パス 276" d="M4724.042,503.124q-5.973,0-13.438-5.6l-7.375,10.36a33.22,33.22,0,0,0,9.706,5.412,31.2,31.2,0,0,0,10.734,2.053,29.187,29.187,0,0,0,11.992-2.239,17,17,0,0,0,7.561-6.206,16.06,16.06,0,0,0,2.566-8.914q0-6.439-3.828-9.985a31.18,31.18,0,0,0-10.173-5.973q-.838-.282-3.5-1.213a25.654,25.654,0,0,1-4.62-2.1,3.457,3.457,0,0,1-1.959-3.034q0-3.825,5.6-3.826,4.668,0,11.014,4.48l7.372-9.893a30.54,30.54,0,0,0-18.945-6.815,25.849,25.849,0,0,0-10.779,2.1,16.774,16.774,0,0,0-7.186,5.928,15.371,15.371,0,0,0-2.567,8.772,12.8,12.8,0,0,0,3.827,9.659,29.4,29.4,0,0,0,9.707,6.021l2.053.839a37.7,37.7,0,0,1,6.439,2.846,3.649,3.649,0,0,1,2.052,3.127Q4730.294,503.123,4724.042,503.124Z" transform="translate(-4251.976 -418.601)"/>
      <path id="パス_277" data-name="パス 277" d="M4786.039,487.534q0,9.893,4.573,15.445t14.186,5.552a34.779,34.779,0,0,0,6.3-.512,49.956,49.956,0,0,0,5.74-1.447l-2.613-12.04a15.053,15.053,0,0,1-4.854,1.027,6.287,6.287,0,0,1-4.9-2.007q-1.819-2.006-1.82-6.206V467.094h12.508V454.122H4802.65V440.029h-13.719l-1.865,14.094-8.213.654v12.318h7.187Z" transform="translate(-4278.275 -411.784)"/>
    </g>
    <g id="グループ_136" data-name="グループ 136" transform="translate(3930.725 498.726)">
      <path id="パス_278" data-name="パス 278" d="M3939.781,592.482l2.247-3.891H3958.7l23.067,22.738a1.326,1.326,0,0,0,.934.383h19.705a1.338,1.338,0,0,0,0-2.676h-19.151l-22.1-21.782,22.1-21.789h19.151a1.338,1.338,0,0,0,0-2.676h-19.7a1.332,1.332,0,0,0-.937.384L3958.7,585.909h-16.675l-2.247-3.89h-6.038l-3.018,5.235,3.017,5.228Z" transform="translate(-3930.725 -556.477)"/>
      <path id="パス_279" data-name="パス 279" d="M4869.748,592.482l-2.247-3.891h-16.675l-23.066,22.738a1.327,1.327,0,0,1-.934.383h-19.705a1.338,1.338,0,0,1,0-2.676h19.15l22.1-21.782-22.1-21.789h-19.15a1.338,1.338,0,0,1,0-2.676h19.7a1.332,1.332,0,0,1,.937.384l23.065,22.736H4867.5l2.247-3.89h6.038l3.018,5.235-3.018,5.228Z" transform="translate(-4235.039 -556.477)"/>
      <g id="グループ_135" data-name="グループ 135" transform="translate(89.927)">
        <g id="グループ_134" data-name="グループ 134">
          <path id="パス_280" data-name="パス 280" d="M4096.93,598.94V563.879h-8.376v13.366h-11.531V563.879H4068.6V598.94h8.423v-14.4h11.531v14.4Z" transform="translate(-4068.6 -556.856)"/>
          <rect id="長方形_81" data-name="長方形 81" width="8.425" height="35.061" transform="translate(35.3 7.023)"/>
          <path id="パス_281" data-name="パス 281" d="M4146.33,563.879V598.94h8.424v-9.177l3.812-5.177,8.283,14.354h9.177l-12.565-20.99,10.589-14.072h-9.225l-9.93,13.884h-.141V563.879Z" transform="translate(-4095.631 -556.856)"/>
          <path id="パス_282" data-name="パス 282" d="M4193.987,598.941h8.566l2.023-8.048h10.354l2.023,8.048h8.848l-10.872-35.062h-10.071Zm12.942-17.507q.847-3.341,2.683-11.248h.188l1.318,5.318q.894,3.908,1.458,5.93l.753,2.965h-7.153Z" transform="translate(-4112.205 -556.856)"/>
          <path id="パス_283" data-name="パス 283" d="M4247.98,563.879v35.062h8.424V586.61h4.047l6.447,12.331h9.413l-7.812-13.883a10.193,10.193,0,0,0,4.424-3.859,11.527,11.527,0,0,0,1.6-6.259q0-5.931-3.741-8.495t-9.953-2.565Zm18.354,11.06a4.562,4.562,0,0,1-1.576,3.741,7.08,7.08,0,0,1-4.589,1.294H4256.4v-9.412h3.765a8.669,8.669,0,0,1,4.636.988A3.723,3.723,0,0,1,4266.334,574.939Z" transform="translate(-4130.981 -556.856)"/>
          <path id="パス_284" data-name="パス 284" d="M4310.723,599.6q7.059,0,10.542-4.165t3.482-12.966V563.879h-8.094v19.484q0,4.8-1.482,6.895a5.09,5.09,0,0,1-4.448,2.094,4.986,4.986,0,0,1-4.4-2.071q-1.436-2.07-1.436-6.918V563.879h-8.377v18.589q0,8.754,3.554,12.942T4310.723,599.6Z" transform="translate(-4147.858 -556.856)"/>
          <path id="パス_285" data-name="パス 285" d="M4347.119,590.857v7.1h27.83V564.837h-27.83v7.1h20.454v18.916Z" transform="translate(-4165.458 -557.189)"/>
          <path id="パス_286" data-name="パス 286" d="M4411.536,595.172a25.108,25.108,0,0,1-4.615,1.765,28.763,28.763,0,0,1-3.666.77,8.931,8.931,0,0,1-1.494.136v7.285q.091,0,1.855-.226t4.616-.883a30.01,30.01,0,0,0,6.018-2.149,26.116,26.116,0,0,0,6.246-4.254,18.088,18.088,0,0,0,4.751-7.1,28.545,28.545,0,0,0,1.674-10.272H4397.6v6.743h20.815a11.779,11.779,0,0,1-2.647,5.022A14.2,14.2,0,0,1,4411.536,595.172Z" transform="translate(-4183.014 -562.546)"/>
          <rect id="長方形_82" data-name="長方形 82" width="26.065" height="6.743" transform="translate(215.852 6.697)"/>
          <path id="パス_287" data-name="パス 287" d="M4449.792,602.125q-.475,2.353-.52,2.444h6.516q.858-4.978,1.267-9.1t.452-11.765h-6.018a99.054,99.054,0,0,1-.633,11.381Q4450.266,599.772,4449.792,602.125Z" transform="translate(-4200.984 -563.752)"/>
          <rect id="長方形_83" data-name="長方形 83" width="3.439" height="7.15" transform="translate(274.398)"/>
          <path id="パス_288" data-name="パス 288" d="M4460.3,560.466v5.159h-11.584v7.24H4460.3v25.522h6.742V572.865h11.721v-7.24h-11.721v-5.159Z" transform="translate(-4200.791 -555.669)"/>
          <rect id="長方形_84" data-name="長方形 84" width="3.439" height="7.15" transform="translate(269.013)"/>
          <path id="パス_289" data-name="パス 289" d="M4487.666,583.708H4481.6q.045,7.648.453,11.765t1.267,9.1h6.516q-.045-.091-.611-2.444a59.391,59.391,0,0,1-1.063-7.036A110.056,110.056,0,0,1,4487.666,583.708Z" transform="translate(-4212.227 -563.752)"/>
          <path id="パス_290" data-name="パス 290" d="M4503.244,563.879v35.062h8V587.316a88.236,88.236,0,0,0-.753-9.695l-.329-3.247h.234l3.436,7.671,8.66,16.9h8.565V563.879h-8V575.5a95.264,95.264,0,0,0,.895,10.918l.235,2.024h-.235l-3.436-7.765-8.707-16.8Z" transform="translate(-4219.753 -556.856)"/>
          <path id="パス_291" data-name="パス 291" d="M4565.091,585.575h11.954v-7.012h-11.954v-7.671h13.931v-7.012h-22.354V598.94h8.424Z" transform="translate(-4238.332 -556.856)"/>
          <path id="パス_292" data-name="パス 292" d="M4613.845,598.94V570.891h9.506v-7.012h-27.39v7.012h9.46V598.94Z" transform="translate(-4251.997 -556.856)"/>
          <path id="パス_293" data-name="パス 293" d="M4662.433,579.188a17.26,17.26,0,0,1-2.4,1.267,4.1,4.1,0,0,1-1.041.362v7.15q.089,0,1.878-.679a25,25,0,0,0,4.344-2.308,27.029,27.029,0,0,0,5.182-4.457,16.4,16.4,0,0,0,3.756-7.082h.045v-7.014l-18.825.633v-6.109h-6.787v6.335l-5.294.181v6.968l5.249-.136q0,4.165.068,7.4t.158,6.811q.363,5.294,3.077,7.308t7.647,2.15q3.892.09,6.924.023t5.046-.181q2.013-.114,2.059-.113v-7.286q-.045,0-1.267.136t-3.213.271q-1.992.136-4.3.2t-4.525.023a7.734,7.734,0,0,1-3.19-.588,2.547,2.547,0,0,1-1.2-1.357,8.929,8.929,0,0,1-.453-2.082q-.091-2.444-.112-5.588t.112-7.354l11.495-.452a10.83,10.83,0,0,1-1.877,3.349A10.677,10.677,0,0,1,4662.433,579.188Z" transform="translate(-4268.457 -555.838)"/>
          <rect id="長方形_85" data-name="長方形 85" width="20.907" height="7.105" transform="translate(409.379 20.137)"/>
          <path id="パス_294" data-name="パス 294" d="M4736.06,585.105a49.516,49.516,0,0,1-1.742,6.856,60.848,60.848,0,0,1-2.534,6.154h7.6a15.875,15.875,0,0,0,1.087-2.376,44.98,44.98,0,0,0,2.059-7.263,59.488,59.488,0,0,0,1.108-12.036V563.588h-6.833V576.44A46.858,46.858,0,0,1,4736.06,585.105Z" transform="translate(-4299.231 -556.755)"/>
          <path id="パス_295" data-name="パス 295" d="M4768.529,585.156a18.355,18.355,0,0,1-2.851,2.308,17.384,17.384,0,0,1-2.942,1.561v-26.2h-6.877v36.02a10.882,10.882,0,0,0,1.652-.159,22.236,22.236,0,0,0,3.959-.973,23.3,23.3,0,0,0,4.978-2.4,22.214,22.214,0,0,0,5.067-4.48v-8.779Q4769.887,583.822,4768.529,585.156Z" transform="translate(-4307.604 -556.49)"/>
        </g>
        <rect id="長方形_86" data-name="長方形 86" width="463.912" height="3.117" transform="translate(0 47.892)"/>
        <rect id="長方形_87" data-name="長方形 87" width="463.912" height="1.039" transform="translate(0 54.196)"/>
      </g>
    </g>
  </g>
</svg>
