<svg id="NFT_logo_EN" xmlns="http://www.w3.org/2000/svg" xmlns:xlink="http://www.w3.org/1999/xlink" width="643.766" height="148.395" viewBox="0 0 643.766 148.395">
  <defs>
    <clipPath id="clip-path">
      <rect id="長方形_98" data-name="長方形 98" width="643.766" height="148.395" fill="none"/>
    </clipPath>
  </defs>
  <path id="パス_298" data-name="パス 298" d="M146.383,151.9v13.025h6.526V151.9H158.5v34.064h-5.594V170.838h-6.526v15.124H140.79V151.9Z" transform="translate(-48.961 -52.824)"/>
  <rect id="長方形_92" data-name="長方形 92" width="5.594" height="34.064" transform="translate(112.862 99.074)"/>
  <path id="パス_299" data-name="パス 299" d="M192.264,165.543h.078l7.07-13.645h6.06l-7.536,14.6,8.39,19.465h-6.293l-5.71-13.979-2.058,3.865v10.114H186.67V151.9h5.594Z" transform="translate(-64.917 -52.824)"/>
  <path id="パス_300" data-name="パス 300" d="M231.845,151.9l7.342,34.064H233.36l-1.282-7.2H224.7l-1.282,7.2h-5.826l7.342-34.064Zm-.738,21.231-2.68-15.315h-.078l-2.68,15.315Z" transform="translate(-75.669 -52.824)"/>
  <g id="グループ_142" data-name="グループ 142">
    <g id="グループ_141" data-name="グループ 141" clip-path="url(#clip-path)">
      <path id="パス_301" data-name="パス 301" d="M263.674,151.9a6.921,6.921,0,0,1,5.438,2.171q1.941,2.172,1.942,6.608a12.152,12.152,0,0,1-1.126,5.605,5.28,5.28,0,0,1-3.5,2.791v.1a4.716,4.716,0,0,1,3.068,1.67,8.106,8.106,0,0,1,1.2,4.151q.077.955.116,2.075t.078,2.5q.078,2.719.233,4.151a2.767,2.767,0,0,0,1.01,1.956v.286h-6.06a4.187,4.187,0,0,1-.543-1.646q-.116-.93-.155-1.932l-.155-6.536a6.248,6.248,0,0,0-.816-3.149,2.729,2.729,0,0,0-2.486-1.145h-2.991v14.409h-5.594V151.9Zm-2.409,14.885a4.034,4.034,0,0,0,3.107-1.169,5.712,5.712,0,0,0,1.088-3.936q0-4.724-3.885-4.724h-2.641v9.829Z" transform="translate(-88.103 -52.824)"/>
      <path id="パス_302" data-name="パス 302" d="M290.1,175.657a18.735,18.735,0,0,0,.136,2.361,6.186,6.186,0,0,0,.5,1.861,3.079,3.079,0,0,0,1.01,1.24,3.128,3.128,0,0,0,3.244,0,3.148,3.148,0,0,0,.99-1.24,6.223,6.223,0,0,0,.506-1.861,18.863,18.863,0,0,0,.136-2.361V151.9h5.594v23.759a16.577,16.577,0,0,1-.738,5.367,8.7,8.7,0,0,1-1.982,3.364,6.281,6.281,0,0,1-2.835,1.67,12.627,12.627,0,0,1-3.3.429,14.114,14.114,0,0,1-3.3-.382,6.183,6.183,0,0,1-2.836-1.55,8.044,8.044,0,0,1-1.981-3.316,17.511,17.511,0,0,1-.738-5.582V151.9H290.1Z" transform="translate(-98.94 -52.824)"/>
      <path id="パス_303" data-name="パス 303" d="M342.192,157.625a2.618,2.618,0,0,0-2.622-1.694,2.32,2.32,0,0,0-1.728.692,4.881,4.881,0,0,0-1.068,2.242,23.039,23.039,0,0,0-.543,4.055q-.157,2.506-.156,6.131,0,3.865.214,6.25a16.583,16.583,0,0,0,.66,3.7,3.342,3.342,0,0,0,1.126,1.766,2.771,2.771,0,0,0,1.573.453,3.115,3.115,0,0,0,1.379-.31,2.585,2.585,0,0,0,1.107-1.241,9.346,9.346,0,0,0,.738-2.624,29.359,29.359,0,0,0,.272-4.461h5.594a37.653,37.653,0,0,1-.35,5.248,13.678,13.678,0,0,1-1.3,4.341,7.125,7.125,0,0,1-2.681,2.911,8.56,8.56,0,0,1-4.486,1.049,8.932,8.932,0,0,1-5.01-1.24,7.818,7.818,0,0,1-2.855-3.579,18.561,18.561,0,0,1-1.282-5.582q-.292-3.243-.292-7.156,0-3.865.292-7.132a18.633,18.633,0,0,1,1.282-5.606,8.29,8.29,0,0,1,2.855-3.649,8.552,8.552,0,0,1,5.01-1.312,8.2,8.2,0,0,1,4.72,1.192,7.464,7.464,0,0,1,2.583,3.03,12.24,12.24,0,0,1,1.068,3.96q.213,2.123.213,3.983H342.91a14.908,14.908,0,0,0-.719-5.415" transform="translate(-114.929 -52.468)"/>
      <path id="パス_304" data-name="パス 304" d="M361.571,171.427a12.745,12.745,0,0,1,1.4-4.223,6.7,6.7,0,0,1,2.544-2.576,7.8,7.8,0,0,1,3.866-.882,8.222,8.222,0,0,1,4,.787,6.045,6.045,0,0,1,2.524,2.553,13.038,13.038,0,0,1,1.321,4.246,39.457,39.457,0,0,1,.389,5.916,35.3,35.3,0,0,1-.427,5.821,12.764,12.764,0,0,1-1.4,4.223,6.194,6.194,0,0,1-2.544,2.5,8.376,8.376,0,0,1-3.865.811,8.62,8.62,0,0,1-4-.739,5.78,5.78,0,0,1-2.524-2.481,12.773,12.773,0,0,1-1.321-4.246,39.477,39.477,0,0,1-.389-5.892,35.237,35.237,0,0,1,.427-5.821m5.011,9.446a15.157,15.157,0,0,0,.369,2.863,4.375,4.375,0,0,0,.874,1.861,1.96,1.96,0,0,0,1.554.668q1.631,0,2.253-2.1a27.1,27.1,0,0,0,.622-6.918,27.1,27.1,0,0,0-.622-6.918q-.621-2.1-2.253-2.1a1.962,1.962,0,0,0-1.554.668,4.382,4.382,0,0,0-.874,1.861,15.186,15.186,0,0,0-.369,2.863q-.079,1.67-.078,3.626t.078,3.626" transform="translate(-125.592 -56.944)"/>
      <rect id="長方形_93" data-name="長方形 93" width="5.36" height="34.064" transform="translate(254.356 99.074)"/>
      <rect id="長方形_94" data-name="長方形 94" width="5.36" height="34.064" transform="translate(262.773 99.074)"/>
      <path id="パス_305" data-name="パス 305" d="M415.253,171.667a10.424,10.424,0,0,1,.583-3.745,6.494,6.494,0,0,1,1.573-2.433,5.825,5.825,0,0,1,2.33-1.336,9.821,9.821,0,0,1,2.855-.406,10.942,10.942,0,0,1,3.884.573,5.206,5.206,0,0,1,2.292,1.622,5.906,5.906,0,0,1,1.107,2.5,16.172,16.172,0,0,1,.292,3.173v13.5a22.269,22.269,0,0,0,.136,2.815,11.577,11.577,0,0,0,.524,2.147H425.7a6.231,6.231,0,0,1-.408-1.312q-.137-.691-.252-1.36h-.078a5.139,5.139,0,0,1-2.156,2.6,7.255,7.255,0,0,1-3.166.6,4.447,4.447,0,0,1-2.37-.6,4.376,4.376,0,0,1-1.554-1.646,8.274,8.274,0,0,1-.855-2.361,12.834,12.834,0,0,1-.271-2.6,13.7,13.7,0,0,1,.31-3.125,6.586,6.586,0,0,1,.952-2.242,5.493,5.493,0,0,1,1.632-1.55,11.576,11.576,0,0,1,2.388-1.1l3.03-1a3.1,3.1,0,0,0,1.67-1.049,3.415,3.415,0,0,0,.466-1.956,4.1,4.1,0,0,0-.564-2.313,2.149,2.149,0,0,0-1.923-.836,2.109,2.109,0,0,0-1.864.907,4.233,4.233,0,0,0-.622,2.434v.715h-4.817Zm8.623,6.417a6.527,6.527,0,0,1-1.126.453,3.923,3.923,0,0,0-2.33,1.432,4.675,4.675,0,0,0-.7,2.719,6.2,6.2,0,0,0,.466,2.528,1.6,1.6,0,0,0,1.554,1.05,3.262,3.262,0,0,0,1.127-.215,3,3,0,0,0,1.068-.692,3.628,3.628,0,0,0,.8-1.241,4.8,4.8,0,0,0,.311-1.813v-5.057a4.693,4.693,0,0,1-1.166.835" transform="translate(-144.18 -56.945)"/>
      <path id="パス_306" data-name="パス 306" d="M448.4,151.9V162.68h.078a6.864,6.864,0,0,1,1.923-2.29,4.324,4.324,0,0,1,2.583-.764,5.107,5.107,0,0,1,4.855,3.173q1.553,3.174,1.554,10.329t-1.554,10.257a5.112,5.112,0,0,1-4.855,3.1,4.94,4.94,0,0,1-2.739-.715,6.155,6.155,0,0,1-2-2.528h-.078v2.719h-5.127V151.9Zm.524,27.552q.524,2.123,2.312,2.123,1.747,0,2.272-2.123a38.412,38.412,0,0,0,0-12.643q-.525-2.122-2.272-2.123-1.787,0-2.312,2.123a38.363,38.363,0,0,0,0,12.643" transform="translate(-154.071 -52.824)"/>
      <path id="パス_307" data-name="パス 307" d="M471.256,171.427a12.73,12.73,0,0,1,1.4-4.223,6.7,6.7,0,0,1,2.544-2.576,7.8,7.8,0,0,1,3.865-.882,8.225,8.225,0,0,1,4,.787,6.054,6.054,0,0,1,2.525,2.553,13.069,13.069,0,0,1,1.32,4.246,39.55,39.55,0,0,1,.388,5.916,35.231,35.231,0,0,1-.427,5.821,12.764,12.764,0,0,1-1.4,4.223,6.2,6.2,0,0,1-2.544,2.5,8.376,8.376,0,0,1-3.865.811,8.62,8.62,0,0,1-4-.739,5.784,5.784,0,0,1-2.524-2.481,12.773,12.773,0,0,1-1.321-4.246,39.567,39.567,0,0,1-.389-5.892,35.158,35.158,0,0,1,.428-5.821m5.011,9.446a15.11,15.11,0,0,0,.369,2.863,4.367,4.367,0,0,0,.874,1.861,1.957,1.957,0,0,0,1.554.668q1.632,0,2.253-2.1a27.1,27.1,0,0,0,.622-6.918,27.105,27.105,0,0,0-.622-6.918q-.621-2.1-2.253-2.1a1.959,1.959,0,0,0-1.554.668,4.374,4.374,0,0,0-.874,1.861,15.139,15.139,0,0,0-.369,2.863q-.08,1.67-.078,3.626t.078,3.626" transform="translate(-163.736 -56.944)"/>
      <path id="パス_308" data-name="パス 308" d="M504.6,164.415v3.436h.078a9.208,9.208,0,0,1,1.981-2.982,3.941,3.941,0,0,1,2.836-1.121c.155,0,.317.008.485.023s.33.04.485.072v6.3q-.428-.047-.835-.071c-.271-.016-.55-.024-.835-.024a4.322,4.322,0,0,0-1.4.239,3.538,3.538,0,0,0-1.282.787,3.911,3.911,0,0,0-.932,1.431,5.924,5.924,0,0,0-.35,2.171v15.41h-5.36V164.415Z" transform="translate(-173.698 -56.945)"/>
      <path id="パス_309" data-name="パス 309" d="M518.2,171.667a10.424,10.424,0,0,1,.583-3.745,6.488,6.488,0,0,1,1.573-2.433,5.822,5.822,0,0,1,2.33-1.336,9.821,9.821,0,0,1,2.856-.406,10.946,10.946,0,0,1,3.885.573,5.2,5.2,0,0,1,2.291,1.622,5.9,5.9,0,0,1,1.107,2.5,16.177,16.177,0,0,1,.292,3.173v13.5a22.12,22.12,0,0,0,.136,2.815,11.522,11.522,0,0,0,.524,2.147h-5.127a6.274,6.274,0,0,1-.408-1.312q-.137-.691-.252-1.36h-.078a5.138,5.138,0,0,1-2.156,2.6,7.253,7.253,0,0,1-3.166.6,4.447,4.447,0,0,1-2.37-.6,4.377,4.377,0,0,1-1.554-1.646,8.29,8.29,0,0,1-.854-2.361,12.788,12.788,0,0,1-.272-2.6,13.7,13.7,0,0,1,.31-3.125,6.6,6.6,0,0,1,.952-2.242,5.5,5.5,0,0,1,1.632-1.55,11.569,11.569,0,0,1,2.389-1.1l3.029-1a3.1,3.1,0,0,0,1.671-1.049,3.415,3.415,0,0,0,.466-1.956,4.1,4.1,0,0,0-.564-2.313,2.148,2.148,0,0,0-1.922-.836,2.109,2.109,0,0,0-1.865.907,4.233,4.233,0,0,0-.622,2.434v.715H518.2Zm8.623,6.417a6.527,6.527,0,0,1-1.126.453,3.923,3.923,0,0,0-2.331,1.432,4.675,4.675,0,0,0-.7,2.719,6.2,6.2,0,0,0,.466,2.528,1.594,1.594,0,0,0,1.554,1.05,3.261,3.261,0,0,0,1.126-.215,2.991,2.991,0,0,0,1.068-.692,3.628,3.628,0,0,0,.8-1.241,4.8,4.8,0,0,0,.31-1.813v-5.057a4.693,4.693,0,0,1-1.166.835" transform="translate(-179.98 -56.945)"/>
      <path id="パス_310" data-name="パス 310" d="M551.86,153.507v7.347h3.108v4.485H551.86v13.883a4.642,4.642,0,0,0,.369,2.171,1.62,1.62,0,0,0,1.535.644c.207,0,.414-.007.621-.024a5.748,5.748,0,0,0,.583-.072v4.581q-.894,0-1.728.072t-1.768.071a10.224,10.224,0,0,1-2.544-.262,2.527,2.527,0,0,1-1.515-1.049,5.1,5.1,0,0,1-.719-2.076,22.343,22.343,0,0,1-.194-3.244V165.339h-2.719v-4.485H546.5v-7.347Z" transform="translate(-189.107 -53.384)"/>
      <path id="パス_311" data-name="パス 311" d="M568.77,156.942h-5.36v-5.629h5.36Zm0,28.816h-5.36V160.091h5.36Z" transform="translate(-195.933 -52.621)"/>
      <path id="パス_312" data-name="パス 312" d="M575.712,171.427a12.729,12.729,0,0,1,1.4-4.223,6.7,6.7,0,0,1,2.544-2.576,7.8,7.8,0,0,1,3.865-.882,8.221,8.221,0,0,1,4,.787,6.05,6.05,0,0,1,2.525,2.553,13.039,13.039,0,0,1,1.32,4.246,39.445,39.445,0,0,1,.389,5.916,35.306,35.306,0,0,1-.428,5.821,12.749,12.749,0,0,1-1.4,4.223,6.194,6.194,0,0,1-2.544,2.5,8.375,8.375,0,0,1-3.865.811,8.617,8.617,0,0,1-4-.739,5.785,5.785,0,0,1-2.525-2.481,12.771,12.771,0,0,1-1.321-4.246,39.566,39.566,0,0,1-.388-5.892,35.171,35.171,0,0,1,.427-5.821m5.01,9.446a15.218,15.218,0,0,0,.368,2.863,4.375,4.375,0,0,0,.874,1.861,1.96,1.96,0,0,0,1.554.668q1.631,0,2.253-2.1a27.068,27.068,0,0,0,.622-6.918,27.075,27.075,0,0,0-.622-6.918q-.621-2.1-2.253-2.1a1.962,1.962,0,0,0-1.554.668,4.382,4.382,0,0,0-.874,1.861,15.247,15.247,0,0,0-.368,2.863q-.078,1.67-.078,3.626t.078,3.626" transform="translate(-200.063 -56.944)"/>
      <path id="パス_313" data-name="パス 313" d="M609.057,164.415v3.006h.078a6.244,6.244,0,0,1,2.214-2.791,5.581,5.581,0,0,1,3.107-.882,4.764,4.764,0,0,1,3.943,1.717q1.378,1.718,1.378,5.581v19.037h-5.36v-17.7a5.181,5.181,0,0,0-.544-2.791,1.973,1.973,0,0,0-1.748-.787q-2.835,0-2.835,4.246v17.032h-5.361V164.415Z" transform="translate(-210.024 -56.945)"/>
      <path id="パス_314" data-name="パス 314" d="M661.444,175.227h.078V151.9h5.127v34.064h-6.37l-6.837-23.854h-.078v23.854h-5.127V151.9h6.448Z" transform="translate(-225.433 -52.824)"/>
      <path id="パス_315" data-name="パス 315" d="M696.889,151.9v5.629h-9.9v8.015h9.322v5.629h-9.322v14.79H681.39V151.9Z" transform="translate(-236.962 -52.824)"/>
      <path id="パス_316" data-name="パス 316" d="M724.86,157.527H718.8v28.435h-5.594V157.527h-6.06V151.9H724.86Z" transform="translate(-245.919 -52.824)"/>
      <path id="パス_317" data-name="パス 317" d="M756.215,175.969a13.871,13.871,0,0,0,.155,2.171,4.239,4.239,0,0,0,.583,1.646,3,3,0,0,0,1.145,1.05,3.826,3.826,0,0,0,1.807.382,3.2,3.2,0,0,0,2.311-1.025,4.316,4.316,0,0,0,1.029-3.173,6.914,6.914,0,0,0-.252-1.98,4.064,4.064,0,0,0-.836-1.5,5.969,5.969,0,0,0-1.535-1.217,19.793,19.793,0,0,0-2.35-1.121,18.309,18.309,0,0,1-3.224-1.67,9.155,9.155,0,0,1-2.272-2.123,8.127,8.127,0,0,1-1.34-2.814,14.349,14.349,0,0,1-.427-3.7q0-5.056,2.291-7.538a8.146,8.146,0,0,1,6.293-2.48,11.3,11.3,0,0,1,3.438.5A6.775,6.775,0,0,1,765.75,153a7.61,7.61,0,0,1,1.787,2.863,12.114,12.114,0,0,1,.641,4.174v.954h-5.36a8.109,8.109,0,0,0-.7-3.745,2.432,2.432,0,0,0-2.33-1.312,3.255,3.255,0,0,0-1.554.334,2.719,2.719,0,0,0-.991.882,3.354,3.354,0,0,0-.5,1.265,7.865,7.865,0,0,0-.136,1.479,5.807,5.807,0,0,0,.543,2.647,5.043,5.043,0,0,0,2.331,1.98l4.311,2.29a12.817,12.817,0,0,1,2.6,1.789,8.176,8.176,0,0,1,1.612,2,7.531,7.531,0,0,1,.835,2.362,16.151,16.151,0,0,1,.233,2.862q0,5.393-2.544,7.848a9.778,9.778,0,0,1-7.088,2.457q-4.74,0-6.778-2.529t-2.04-7.252v-1.383h5.594Z" transform="translate(-261.038 -52.468)"/>
      <path id="パス_318" data-name="パス 318" d="M781.976,171.667a10.439,10.439,0,0,1,.583-3.745,6.5,6.5,0,0,1,1.574-2.433,5.822,5.822,0,0,1,2.33-1.336,9.819,9.819,0,0,1,2.855-.406,10.944,10.944,0,0,1,3.885.573,5.2,5.2,0,0,1,2.292,1.622,5.915,5.915,0,0,1,1.107,2.5,16.172,16.172,0,0,1,.292,3.173v13.5a22.13,22.13,0,0,0,.136,2.815,11.575,11.575,0,0,0,.524,2.147h-5.127a6.2,6.2,0,0,1-.408-1.312q-.137-.691-.252-1.36h-.078a5.14,5.14,0,0,1-2.156,2.6,7.25,7.25,0,0,1-3.165.6,4.45,4.45,0,0,1-2.37-.6,4.379,4.379,0,0,1-1.553-1.646,8.293,8.293,0,0,1-.855-2.361,12.788,12.788,0,0,1-.272-2.6,13.7,13.7,0,0,1,.311-3.125,6.587,6.587,0,0,1,.952-2.242,5.5,5.5,0,0,1,1.631-1.55,11.6,11.6,0,0,1,2.389-1.1l3.03-1a3.1,3.1,0,0,0,1.67-1.049,3.414,3.414,0,0,0,.466-1.956,4.1,4.1,0,0,0-.564-2.313,2.15,2.15,0,0,0-1.923-.836,2.111,2.111,0,0,0-1.865.907,4.238,4.238,0,0,0-.622,2.434v.715h-4.816Zm8.623,6.417a6.568,6.568,0,0,1-1.126.453,3.921,3.921,0,0,0-2.33,1.432,4.675,4.675,0,0,0-.7,2.719,6.2,6.2,0,0,0,.466,2.528,1.6,1.6,0,0,0,1.554,1.05,3.261,3.261,0,0,0,1.126-.215,3,3,0,0,0,1.068-.692,3.618,3.618,0,0,0,.8-1.241,4.786,4.786,0,0,0,.311-1.813v-5.057a4.693,4.693,0,0,1-1.166.835" transform="translate(-271.712 -56.945)"/>
      <rect id="長方形_95" data-name="長方形 95" width="5.36" height="34.064" transform="translate(528.221 99.074)"/>
      <path id="パス_319" data-name="パス 319" d="M827.106,180.3a17.519,17.519,0,0,0,.136,2.218,8.5,8.5,0,0,0,.446,1.908,3.629,3.629,0,0,0,.815,1.336,1.694,1.694,0,0,0,1.243.5,2.082,2.082,0,0,0,1.982-1.192,10.336,10.336,0,0,0,.854-3.626H837.4q-.156,4.486-1.942,6.823t-5.632,2.338a7.579,7.579,0,0,1-4.545-1.193,7.01,7.01,0,0,1-2.408-3.149,14.654,14.654,0,0,1-.952-4.389q-.175-2.433-.175-4.866a40.877,40.877,0,0,1,.292-4.962A13.9,13.9,0,0,1,823.2,167.8a7.145,7.145,0,0,1,2.505-2.957,7.676,7.676,0,0,1,4.35-1.1,7.139,7.139,0,0,1,3.826.93,6.424,6.424,0,0,1,2.351,2.624,12.758,12.758,0,0,1,1.165,4.1,42.3,42.3,0,0,1,.31,5.367v1.479h-10.6Zm5.322-8.564a7.9,7.9,0,0,0-.408-1.908,2.6,2.6,0,0,0-.815-1.192,2.129,2.129,0,0,0-1.34-.406,1.974,1.974,0,0,0-1.34.453,3.173,3.173,0,0,0-.836,1.192,6.843,6.843,0,0,0-.446,1.646,12.128,12.128,0,0,0-.136,1.813v1h5.477q-.039-1.477-.155-2.6" transform="translate(-285.772 -56.945)"/>
      <path id="パス_320" data-name="パス 320" d="M9.056,182.2l2.246-3.89H27.978l23.067,22.738a1.328,1.328,0,0,0,.933.383h19.7a1.338,1.338,0,0,0,0-2.677H52.532l-22.1-21.782,22.1-21.789H71.683a1.338,1.338,0,1,0,0-2.676H51.98a1.331,1.331,0,0,0-.937.385L27.978,175.628H11.3l-2.246-3.889H3.018L0,176.973,3.017,182.2Z" transform="translate(0 -53.037)"/>
      <path id="パス_321" data-name="パス 321" d="M939.022,182.2l-2.246-3.89H920.1l-23.067,22.738a1.331,1.331,0,0,1-.934.383H876.4a1.338,1.338,0,1,1,0-2.677h19.151l22.1-21.782-22.1-21.789H876.4a1.338,1.338,0,1,1,0-2.676h19.7a1.331,1.331,0,0,1,.937.385L920.1,175.628h16.674l2.246-3.889h6.038l3.018,5.234-3.017,5.228Z" transform="translate(-304.312 -53.037)"/>
      <rect id="長方形_96" data-name="長方形 96" width="463.913" height="3.116" transform="translate(89.927 141.052)"/>
      <rect id="長方形_97" data-name="長方形 97" width="463.913" height="1.039" transform="translate(89.927 147.356)"/>
      <path id="パス_322" data-name="パス 322" d="M78.45,24.242H95.385L112.6,57.46l6.793,15.354h.466l-.466-4a188.215,188.215,0,0,1-1.768-21.587V24.242h15.819V93.564H116.507l-17.12-33.4L92.594,44.992h-.466l.652,6.42a174.317,174.317,0,0,1,1.487,19.169V93.564H78.45Z" transform="translate(-27.282 -8.43)"/>
      <path id="パス_323" data-name="パス 323" d="M179.472,93.565V24.242h44.2V38.107H196.129V53.274h23.636V67.137H196.129V93.565Z" transform="translate(-62.414 -8.431)"/>
      <path id="パス_324" data-name="パス 324" d="M279.1,93.565V38.107h-18.7V24.242h54.155V38.107h-18.8V93.565Z" transform="translate(-90.555 -8.431)"/>
      <path id="パス_325" data-name="パス 325" d="M385.688,91.663a36.072,36.072,0,0,1-12.049-7.4l9.49-11.445a32.663,32.663,0,0,0,8.234,5.117,21.489,21.489,0,0,0,8.515,1.953q4.467,0,6.747-1.582a5.119,5.119,0,0,0,2.28-4.465,4.518,4.518,0,0,0-1.117-3.118A9.146,9.146,0,0,0,405,68.633q-1.676-.837-5.863-2.605l-8.84-3.722a24.416,24.416,0,0,1-10.1-7.212,17.874,17.874,0,0,1-3.953-11.77,18.577,18.577,0,0,1,3.21-10.562,22.077,22.077,0,0,1,8.979-7.584,29.305,29.305,0,0,1,12.934-2.792,33.026,33.026,0,0,1,12.1,2.326,30.033,30.033,0,0,1,10.421,6.793L415.6,41.927a28.261,28.261,0,0,0-6.933-4,20.216,20.216,0,0,0-7.3-1.3,10.548,10.548,0,0,0-6,1.488,4.783,4.783,0,0,0-2.187,4.188,4.237,4.237,0,0,0,1.256,3.117,11.106,11.106,0,0,0,3.118,2.141q1.86.885,6.048,2.559l8.653,3.442a23.342,23.342,0,0,1,10.191,7.305,18.811,18.811,0,0,1,3.488,11.678,19.6,19.6,0,0,1-3.163,10.794,22.37,22.37,0,0,1-9.167,7.909,31.367,31.367,0,0,1-14.1,2.978,39.174,39.174,0,0,1-13.818-2.559" transform="translate(-129.938 -7.785)"/>
      <path id="パス_326" data-name="パス 326" d="M469.8,100.764a14.345,14.345,0,0,1-5.491-5.815,17.4,17.4,0,0,1-1.907-8.143,14.876,14.876,0,0,1,6.978-13.119q6.98-4.653,22.425-6.327a7.361,7.361,0,0,0-2.187-5.071q-1.908-1.722-5.815-1.722a19.155,19.155,0,0,0-6.374,1.162,50.133,50.133,0,0,0-7.492,3.49L464.17,54.332q11.631-6.978,22.8-6.98,10.421,0,15.913,6t5.489,18.192V101.6H494.877l-1.116-5.3H493.3q-7.353,6.608-15.167,6.607a15.934,15.934,0,0,1-8.328-2.139m18.19-11.725a15.35,15.35,0,0,0,3.816-3.163V77.408q-13.677,1.77-13.678,8.1a4.044,4.044,0,0,0,1.489,3.4,6.643,6.643,0,0,0,4.187,1.162,8.523,8.523,0,0,0,4.186-1.023" transform="translate(-160.807 -16.467)"/>
      <path id="パス_327" data-name="パス 327" d="M549.091,87.349Q545.6,82.511,545.6,73.671V16.538h16.562V74.229a5.717,5.717,0,0,0,.837,3.49,2.515,2.515,0,0,0,2.047,1.07,9.352,9.352,0,0,0,1.862-.187l1.955,12.19a21.34,21.34,0,0,1-8.189,1.4q-8.095,0-11.585-4.838" transform="translate(-189.74 -5.751)"/>
      <path id="パス_328" data-name="パス 328" d="M599.939,99.6a23.977,23.977,0,0,1-9.632-9.63,30.045,30.045,0,0,1-3.536-14.889,29.19,29.19,0,0,1,3.536-14.561,25.76,25.76,0,0,1,9.307-9.725A23.583,23.583,0,0,1,611.9,47.353a22.464,22.464,0,0,1,12.515,3.3,20.46,20.46,0,0,1,7.631,9.071,32.089,32.089,0,0,1,2.559,13.12,27.223,27.223,0,0,1-.744,7.166H602.777a12.288,12.288,0,0,0,4.559,7.722,14.286,14.286,0,0,0,8.654,2.512A21.882,21.882,0,0,0,627.156,86.9l5.491,9.956a31.328,31.328,0,0,1-9.071,4.467,32.955,32.955,0,0,1-9.817,1.582,28.525,28.525,0,0,1-13.819-3.3m20.61-30.473a10.1,10.1,0,0,0-2.047-6.654q-2.048-2.464-6.327-2.465a9.052,9.052,0,0,0-6.235,2.326,11.652,11.652,0,0,0-3.442,6.793Z" transform="translate(-204.057 -16.468)"/>
      <path id="パス_329" data-name="パス 329" d="M696.294,68.679H714.35V20.341H698.695V7.772a69.331,69.331,0,0,0,11.6-3.086A52.954,52.954,0,0,0,719.721,0h14.969V68.679H750V85.134H696.294Z" transform="translate(-242.145)"/>
      <path id="パス_330" data-name="パス 330" d="M795.638,103.459a30.2,30.2,0,0,1-8.829-4.923l6.707-9.423q6.791,5.093,12.224,5.093,5.686,0,5.686-3.82a3.321,3.321,0,0,0-1.867-2.844,34.3,34.3,0,0,0-5.857-2.589l-1.868-.764a26.754,26.754,0,0,1-8.829-5.476,11.642,11.642,0,0,1-3.48-8.786,13.966,13.966,0,0,1,2.336-7.979,15.242,15.242,0,0,1,6.536-5.392,23.51,23.51,0,0,1,9.8-1.91,27.783,27.783,0,0,1,17.231,6.2l-6.706,9q-5.773-4.075-10.016-4.075-5.091,0-5.094,3.48a3.149,3.149,0,0,0,1.783,2.76,23.318,23.318,0,0,0,4.2,1.91q2.42.848,3.184,1.1a28.386,28.386,0,0,1,9.253,5.433q3.479,3.226,3.48,9.082a14.608,14.608,0,0,1-2.334,8.108,15.452,15.452,0,0,1-6.876,5.645,26.552,26.552,0,0,1-10.909,2.036,28.371,28.371,0,0,1-9.761-1.867" transform="translate(-273.623 -19.005)"/>
      <path id="パス_331" data-name="パス 331" d="M866.288,94.075q-4.161-5.048-4.161-14.048V61.435h-6.537v-11.2l7.471-.594,1.7-12.819h12.478V49.637h11.376v11.8H877.237V79.857q0,3.821,1.656,5.645a5.719,5.719,0,0,0,4.456,1.826,13.7,13.7,0,0,0,4.416-.935l2.375,10.951a45.621,45.621,0,0,1-5.219,1.317,31.717,31.717,0,0,1-5.73.465q-8.745,0-12.9-5.05" transform="translate(-297.543 -12.804)"/>
    </g>
  </g>
</svg>
